<svg id="Layer_1" data-name="Layer 1" xmlns="http://www.w3.org/2000/svg" viewBox="0 0 210.51 171.33"><defs><style>.cls-1{fill:#122344;}</style></defs><title>halfTone</title><path class="cls-1" d="M2.74,0H0V4.4C1.8,3.82,2.88,2.54,2.74,0Z" transform="translate(0.02 0.02)"/><path class="cls-1" d="M16.34,0H8.81C7.76,5.8,17.08,6.18,16.34,0Z" transform="translate(0.02 0.02)"/><path class="cls-1" d="M30,0H22.42C21.36,5.8,30.69,6.18,30,0Z" transform="translate(0.02 0.02)"/><path class="cls-1" d="M43.46,0H36.11C35,5.71,44.26,6.09,43.46,0Z" transform="translate(0.02 0.02)"/><path class="cls-1" d="M56.88,0h-7c-.11,0-.1.14-.09.27C48.88,5.65,58.07,5.51,56.88,0Z" transform="translate(0.02 0.02)"/><path class="cls-1" d="M63.69,0c-.11,0-.1.14-.09.27-.94,5.11,7.92,5,6.71-.27Z" transform="translate(0.02 0.02)"/><path class="cls-1" d="M77.47,0c-.13,0-.1.2-.18.27-.65,5,7.59,4.65,6.44-.27Z" transform="translate(0.02 0.02)"/><path class="cls-1" d="M91.26,0c-1.45,4.76,7.11,5,5.9,0Z" transform="translate(0.02 0.02)"/><path class="cls-1" d="M105,0c-1.39,4.51,6.69,4.75,5.53,0Z" transform="translate(0.02 0.02)"/><path class="cls-1" d="M118.83,0c-1.37,4.28,6.3,4.51,5.17,0Z" transform="translate(0.02 0.02)"/><path class="cls-1" d="M132.71,0c-1.48,4,5.87,4.21,4.63,0Z" transform="translate(0.02 0.02)"/><path class="cls-1" d="M146.5,0c-1.34,3.7,5.37,3.94,4.26,0Z" transform="translate(0.02 0.02)"/><path class="cls-1" d="M160.37,0c-.36.15-.1.93-.18,1.36.57,2.1,4.72,1.71,4-1.27A31.55,31.55,0,0,0,160.37,0Z" transform="translate(0.02 0.02)"/><path class="cls-1" d="M174.25,0c-1.43,3,4.37,3.29,3.17,0Z" transform="translate(0.02 0.02)"/><path class="cls-1" d="M188,0c-1.08,2.82,3.8,2.82,2.72,0Z" transform="translate(0.02 0.02)"/><path class="cls-1" d="M201.92,1.22A1.18,1.18,0,1,0,204,.13C202.78-.15,201.53-.07,201.92,1.22Z" transform="translate(0.02 0.02)"/><path class="cls-1" d="M6.82,11.29C11.22,10.13,9.85,3,5,3.85a3.68,3.68,0,0,0-3.08,3,3.92,3.92,0,0,0,4.9,4.44Z" transform="translate(0.02 0.02)"/><path class="cls-1" d="M20.42,11.29c4.4-1.16,3-8.32-1.81-7.44a3.67,3.67,0,0,0-3.08,3,3.92,3.92,0,0,0,4.89,4.44Z" transform="translate(0.02 0.02)"/><path class="cls-1" d="M33.66,11.29c4.47-.73,3.6-8.27-1.45-7.35C27.56,4.79,28.71,12.1,33.66,11.29Z" transform="translate(0.02 0.02)"/><path class="cls-1" d="M50.17,7.48A3.54,3.54,0,0,0,46.57,4l-.4,0a3.33,3.33,0,0,0-3.28,3.38q0,.13,0,.25C43,12,50.3,12.47,50.17,7.48Z" transform="translate(0.02 0.02)"/><path class="cls-1" d="M59.88,4.21a3.17,3.17,0,0,0-3.19,3.15q0,.15,0,.3c.1,4.13,6.89,4.56,6.89-.09a3.37,3.37,0,0,0-3.36-3.38Z" transform="translate(0.02 0.02)"/><path class="cls-1" d="M73.39,4.4a3,3,0,0,0-2.91,3.09q0,.09,0,.18C70.58,11.6,77.13,12,77,7.49a3.18,3.18,0,0,0-3.24-3.12Z" transform="translate(0.02 0.02)"/><path class="cls-1" d="M86.91,4.58c-4.47.63-2.5,7.49,1.63,5.9C91.81,9.21,90.54,4.07,86.91,4.58Z" transform="translate(0.02 0.02)"/><path class="cls-1" d="M100.6,4.76c-3.56.46-3.11,5.8.45,5.71C104.78,10.39,104.69,4.24,100.6,4.76Z" transform="translate(0.02 0.02)"/><path class="cls-1" d="M114.21,4.94a2.49,2.49,0,0,0-2.37,2.61s0,.08,0,.11c.08,3.43,5.53,3.46,5.44-.18a2.56,2.56,0,0,0-3.08-2.54Z" transform="translate(0.02 0.02)"/><path class="cls-1" d="M127.63,5.21c-2.71.54-2.16,4.13-.36,4.72C131.25,11.23,131.82,4.38,127.63,5.21Z" transform="translate(0.02 0.02)"/><path class="cls-1" d="M141.42,5.39a2.24,2.24,0,0,0,.45,4.44C144.79,9.73,144.67,4.87,141.42,5.39Z" transform="translate(0.02 0.02)"/><path class="cls-1" d="M154.93,5.66a1.61,1.61,0,0,0-1.54,1.63c-.3,3,3.77,2.75,4,.54a1.91,1.91,0,0,0-2.46-2.17Z" transform="translate(0.02 0.02)"/><path class="cls-1" d="M168.45,5.94c-2,.53-1.06,3.11,0,3.36C171.36,10,171.53,5.11,168.45,5.94Z" transform="translate(0.02 0.02)"/><path class="cls-1" d="M182.14,6.21c-1.9.52-.91,3.22.91,2.81S184.18,5.66,182.14,6.21Z" transform="translate(0.02 0.02)"/><path class="cls-1" d="M195.75,6.57a1,1,0,0,0-.64.54c-.67,2.26,2.72,1.83,2.18,0a1.12,1.12,0,0,0-1.48-.57Z" transform="translate(0.02 0.02)"/><path class="cls-1" d="M210.44,7.21a.8.8,0,0,0-1-.18C208.21,8,210.87,9,210.44,7.21Z" transform="translate(0.02 0.02)"/><path class="cls-1" d="M13.62,18.09c4.4-1.15,3-8.32-1.81-7.44a3.67,3.67,0,0,0-3.08,3,3.92,3.92,0,0,0,4.89,4.44Z" transform="translate(0.02 0.02)"/><path class="cls-1" d="M26.68,18.09a3.74,3.74,0,0,0,3.17-4.23v0a3.63,3.63,0,0,0-4.07-3.13l-.28,0a3.49,3.49,0,0,0-3.08,3.17,3.74,3.74,0,0,0,4.26,4.17Z" transform="translate(0.02 0.02)"/><path class="cls-1" d="M0,10.74V18C3.53,17.57,3.53,11.18,0,10.74Z" transform="translate(0.02 0.02)"/><path class="cls-1" d="M43.1,15.73A3.62,3.62,0,1,0,36.39,13C34.61,17.84,41.61,19.78,43.1,15.73Z" transform="translate(0.02 0.02)"/><path class="cls-1" d="M52.62,11.11A3.11,3.11,0,0,0,50.17,13a3.41,3.41,0,0,0,1.72,4.5l.11,0a3.62,3.62,0,0,0,4.53-1.81,3.39,3.39,0,0,0-3.91-4.63Z" transform="translate(0.02 0.02)"/><path class="cls-1" d="M66.77,11.2a3,3,0,0,0-2.09.82c-3.12,3,1.68,7.7,4.63,4.63a3.24,3.24,0,0,0-2.54-5.45Z" transform="translate(0.02 0.02)"/><path class="cls-1" d="M80.47,11.38a2.87,2.87,0,0,0-2.9,2.27c-.86,4.11,5.21,5.14,6,1.45a3,3,0,0,0-3.1-3.72Z" transform="translate(0.02 0.02)"/><path class="cls-1" d="M94,11.56A2.88,2.88,0,0,0,92.89,17C97.26,19,98.77,11.2,94,11.56Z" transform="translate(0.02 0.02)"/><path class="cls-1" d="M107.13,11.83a2.47,2.47,0,0,0-2,1.9c-.75,3.84,4.67,4.28,5.26,1.27a2.65,2.65,0,0,0-3.26-3.17Z" transform="translate(0.02 0.02)"/><path class="cls-1" d="M120.92,12a2.46,2.46,0,0,0-1.36,4.08c2.29,2.41,5.86-1.34,3.54-3.54A2.42,2.42,0,0,0,120.92,12Z" transform="translate(0.02 0.02)"/><path class="cls-1" d="M134.8,12.2a2.23,2.23,0,0,0,.27,4.44C138,16.54,137.68,11.93,134.8,12.2Z" transform="translate(0.02 0.02)"/><path class="cls-1" d="M148.22,12.47a2,2,0,0,0-1.54,1.18c-1,3,3.11,3.51,3.81,1.45a1.93,1.93,0,0,0-2.27-2.63Z" transform="translate(0.02 0.02)"/><path class="cls-1" d="M161.73,12.74c-1,.24-1.06.69-1.18,1.09-.86,2.94,4.47,3,3.27-.18A1.71,1.71,0,0,0,161.73,12.74Z" transform="translate(0.02 0.02)"/><path class="cls-1" d="M175.43,13a1.3,1.3,0,0,0-1.09,1.18c-.23,2.43,3.19,2,2.9-.09A1.31,1.31,0,0,0,175.43,13Z" transform="translate(0.02 0.02)"/><path class="cls-1" d="M189.13,13.37a1,1,0,0,0-.82,1,1.09,1.09,0,0,0,2.18,0,1,1,0,0,0-1.36-1Z" transform="translate(0.02 0.02)"/><path class="cls-1" d="M202.64,13.83c-1.23.94,1.43,2,1,.18A.8.8,0,0,0,202.64,13.83Z" transform="translate(0.02 0.02)"/><path class="cls-1" d="M5.09,17.46a3.59,3.59,0,0,0-3.17,3.27c-.56,5.06,7.12,5.78,7.62.91a3.74,3.74,0,0,0-4.45-4.18Z" transform="translate(0.02 0.02)"/><path class="cls-1" d="M19.06,24.89a3.78,3.78,0,0,0,4-4.08A3.7,3.7,0,0,0,19,17.51l-.2,0h-.18C14.65,18.16,14.68,24.63,19.06,24.89Z" transform="translate(0.02 0.02)"/><path class="cls-1" d="M35.3,23.9c2.43-2,.91-6.86-3-6.17a3.28,3.28,0,0,0-2.09,1.09C27.54,22,31.83,26.8,35.3,23.9Z" transform="translate(0.02 0.02)"/><path class="cls-1" d="M45.82,17.91c-3.68.74-3.25,6,0,6.62a3.49,3.49,0,0,0,4.08-4.08A3.4,3.4,0,0,0,45.82,17.91Z" transform="translate(0.02 0.02)"/><path class="cls-1" d="M61.42,18.18a4.27,4.27,0,0,0-2-.09,3.39,3.39,0,0,0-2.27,1.81,3.57,3.57,0,0,0,0,2.54,3.47,3.47,0,0,0,4.26,1.72C64.14,23.09,63.64,19.06,61.42,18.18Z" transform="translate(0.02 0.02)"/><path class="cls-1" d="M73.12,18.27a3,3,0,0,0-1.54,5.08,3.2,3.2,0,0,0,4.35,0C78.22,21.07,75.82,17.75,73.12,18.27Z" transform="translate(0.02 0.02)"/><path class="cls-1" d="M86.82,18.45c-3,.52-3,5.08,0,5.53C91.33,24.67,91.1,17.7,86.82,18.45Z" transform="translate(0.02 0.02)"/><path class="cls-1" d="M100.42,18.64a2.49,2.49,0,0,0-2.12,2.81q0,.1,0,.19c.34,2.53,4.92,3.15,5.26-.09a2.6,2.6,0,0,0-3.17-2.91Z" transform="translate(0.02 0.02)"/><path class="cls-1" d="M114.21,18.82a2.42,2.42,0,0,0,.36,4.81C118,23.62,117.51,18.33,114.21,18.82Z" transform="translate(0.02 0.02)"/><path class="cls-1" d="M127.63,19.09c-2.89.64-1.54,4.77,1.09,4.26C131.13,22.88,130.74,18.4,127.63,19.09Z" transform="translate(0.02 0.02)"/><path class="cls-1" d="M141.69,19.27c-3.12.21-1.84,4.55.73,3.81C144.66,22.44,143.77,19.13,141.69,19.27Z" transform="translate(0.02 0.02)"/><path class="cls-1" d="M154.84,19.63a1.68,1.68,0,0,0,1.09,3.17C158,22.28,156.93,18.65,154.84,19.63Z" transform="translate(0.02 0.02)"/><path class="cls-1" d="M168.63,19.91a1.18,1.18,0,0,0-1,1.09c-.22,2.34,3,1.87,2.72-.09C170.25,20.22,169.76,19.62,168.63,19.91Z" transform="translate(0.02 0.02)"/><path class="cls-1" d="M182.23,20.27c-.51.18-.79.41-.64,1.18a1,1,0,1,0,2-.54C183.5,20.44,183.13,20,182.23,20.27Z" transform="translate(0.02 0.02)"/><path class="cls-1" d="M195.75,21.63a1.21,1.21,0,0,0,.91,0,1.21,1.21,0,0,0,0-.91.65.65,0,0,0-.91.91Z" transform="translate(0.02 0.02)"/><path class="cls-1" d="M209.44,21.27C210.44,22.21,210,20,209.44,21.27Z" transform="translate(0.02 0.02)"/><path class="cls-1" d="M16.25,27.89a3.67,3.67,0,0,0-3.79-3.55h-.11a3.54,3.54,0,0,0-3.54,3.54q0,.09,0,.18C8.92,32.68,16.36,32.84,16.25,27.89Z" transform="translate(0.02 0.02)"/><path class="cls-1" d="M0,24.35v7.26C3.5,31.11,3.5,24.85,0,24.35Z" transform="translate(0.02 0.02)"/><path class="cls-1" d="M26.23,31.51a3.54,3.54,0,0,0,3.45-3.63h0A3.59,3.59,0,0,0,23,26.34a3.54,3.54,0,0,0,3.23,5.17Z" transform="translate(0.02 0.02)"/><path class="cls-1" d="M39.29,24.71a3.15,3.15,0,0,0-2.9,3.36,3.42,3.42,0,0,0,5.71,2.36,3.34,3.34,0,0,0-2.81-5.72Z" transform="translate(0.02 0.02)"/><path class="cls-1" d="M52.8,24.89a3.06,3.06,0,0,0-2.65,3.42l0,.12c.46,3.79,6.88,3.55,6.35-.91a3.19,3.19,0,0,0-3.66-2.64Z" transform="translate(0.02 0.02)"/><path class="cls-1" d="M66.5,25.08c-3.54.55-3.18,6,.54,5.9C71.08,30.87,70.6,24.44,66.5,25.08Z" transform="translate(0.02 0.02)"/><path class="cls-1" d="M80.1,25.26a2.79,2.79,0,0,0,.64,5.53C84.45,30.59,83.93,24.65,80.1,25.26Z" transform="translate(0.02 0.02)"/><path class="cls-1" d="M93.8,25.44c-3.14.45-2.83,5.27.45,5.17S97.54,24.9,93.8,25.44Z" transform="translate(0.02 0.02)"/><path class="cls-1" d="M107.22,25.71a2.56,2.56,0,0,0-1.27.63c-1.86,2.1,1.33,5.56,3.54,3.36a2.4,2.4,0,0,0-2.27-4Z" transform="translate(0.02 0.02)"/><path class="cls-1" d="M121.1,25.89a2.14,2.14,0,0,0,.36,4.26C124.07,30.07,124.21,25.48,121.1,25.89Z" transform="translate(0.02 0.02)"/><path class="cls-1" d="M134.52,26.16c-2.18.49-1.55,3.19-.27,3.63C137.34,30.85,137.8,25.43,134.52,26.16Z" transform="translate(0.02 0.02)"/><path class="cls-1" d="M148.22,26.44A1.38,1.38,0,0,0,147,27.89c-.1,2.36,3.18,2.18,3.26.18a1.48,1.48,0,0,0-2-1.63Z" transform="translate(0.02 0.02)"/><path class="cls-1" d="M162.1,26.71a1.22,1.22,0,0,0-1.27,1.18c-.13,2.31,4,1.34,2.45-.73A1.46,1.46,0,0,0,162.1,26.71Z" transform="translate(0.02 0.02)"/><path class="cls-1" d="M175.7,27.07c-1.64.22-.67,2.36.54,1.81a1,1,0,0,0-.54-1.81Z" transform="translate(0.02 0.02)"/><path class="cls-1" d="M189.13,28.43q.87.14.73-.73C189.37,27.1,188.53,28,189.13,28.43Z" transform="translate(0.02 0.02)"/><path class="cls-1" d="M202.64,28.07C203.64,29,203.19,26.76,202.64,28.07Z" transform="translate(0.02 0.02)"/><path class="cls-1" d="M9.36,34a3.64,3.64,0,0,0-4.31-2.82H5A3.41,3.41,0,0,0,2.1,34C1.19,39.58,10.32,39.92,9.36,34Z" transform="translate(0.02 0.02)"/><path class="cls-1" d="M19.06,31.33a3.25,3.25,0,0,0-3.28,3.22q0,.11,0,.23c0,4.3,7.19,4.83,7.07-.09a3.47,3.47,0,0,0-3.56-3.37Z" transform="translate(0.02 0.02)"/><path class="cls-1" d="M32.58,31.51a3,3,0,0,0-2.72,1.9c-2.15,5,6.44,6.5,6.44,1.36a3.22,3.22,0,0,0-3.72-3.26Z" transform="translate(0.02 0.02)"/><path class="cls-1" d="M46.18,31.7a2.91,2.91,0,0,0-2.82,3q0,.09,0,.17c.09,3.72,6.35,4.28,6.35-.09a3.1,3.1,0,0,0-3.54-3.08Z" transform="translate(0.02 0.02)"/><path class="cls-1" d="M59.88,31.88c-3.77.36-3.31,5.9.27,5.9C64.14,37.77,63.85,31.5,59.88,31.88Z" transform="translate(0.02 0.02)"/><path class="cls-1" d="M73.48,32.06c-3.51.37-3.1,5.53.27,5.53C77.53,37.59,77.2,31.67,73.48,32.06Z" transform="translate(0.02 0.02)"/><path class="cls-1" d="M86.72,32.33a2.34,2.34,0,0,0-1.81,1.72c-1,3.79,4.15,4.3,4.9,1.45a2.49,2.49,0,0,0-3.09-3.17Z" transform="translate(0.02 0.02)"/><path class="cls-1" d="M100.51,32.51c-3.64.67-1.41,6,1.63,4.35a2.36,2.36,0,0,0-1.63-4.35Z" transform="translate(0.02 0.02)"/><path class="cls-1" d="M114,32.78c-3.5.78-.38,6,2.09,3.54A2.14,2.14,0,0,0,114,32.78Z" transform="translate(0.02 0.02)"/><path class="cls-1" d="M128.08,33c-2.25.17-2.39,3.63,0,3.72C130.73,36.78,130.44,32.79,128.08,33Z" transform="translate(0.02 0.02)"/><path class="cls-1" d="M141.6,33.24c-2.15.29-1.5,3.25.27,3.17C143.82,36.33,143.91,32.93,141.6,33.24Z" transform="translate(0.02 0.02)"/><path class="cls-1" d="M155,33.6a1.11,1.11,0,0,0-.91,1.09c-.11,2.08,2.72,1.63,2.54-.09C156.58,33.89,156.09,33.31,155,33.6Z" transform="translate(0.02 0.02)"/><path class="cls-1" d="M168.72,34a.77.77,0,0,0-.65.88v0a.91.91,0,1,0,1.82-.12v-.06C169.86,34.15,169.52,33.72,168.72,34Z" transform="translate(0.02 0.02)"/><path class="cls-1" d="M182.32,35.23q.87.14.73-.73C182.57,33.91,181.72,34.76,182.32,35.23Z" transform="translate(0.02 0.02)"/><path class="cls-1" d="M195.84,34.87C196.84,35.81,196.39,33.56,195.84,34.87Z" transform="translate(0.02 0.02)"/><path class="cls-1" d="M.11,45c3.13-.64,3.13-6.35-.09-6.89C.08,40.4-.11,42.91.11,45Z" transform="translate(0.02 0.02)"/><path class="cls-1" d="M11.9,38.23a3,3,0,0,0-1.9.91C8.18,41,9.29,44.72,12.08,45A3.49,3.49,0,0,0,16,42h0a3.39,3.39,0,0,0-4.1-3.77Z" transform="translate(0.02 0.02)"/><path class="cls-1" d="M25.41,38.41A2.87,2.87,0,0,0,23.5,39.5c-1.42,1.84-.3,5,1.91,5.35a3.4,3.4,0,0,0,4-2.54,3.26,3.26,0,0,0-4-3.9Z" transform="translate(0.02 0.02)"/><path class="cls-1" d="M41,38.68a4.36,4.36,0,0,0-2-.09,3,3,0,0,0-2.18,1.72A3.17,3.17,0,0,0,41,44.49C44.13,43.25,42.68,39.34,41,38.68Z" transform="translate(0.02 0.02)"/><path class="cls-1" d="M52.62,38.77a2.92,2.92,0,0,0-.54,5.53C56.9,46.36,58,37.62,52.62,38.77Z" transform="translate(0.02 0.02)"/><path class="cls-1" d="M68.13,39a3.83,3.83,0,0,0-1.81,0c-3.88.81-1.74,6.69,1.81,5.17C70.57,43.08,69.75,39.73,68.13,39Z" transform="translate(0.02 0.02)"/><path class="cls-1" d="M80.1,39.13c-3.77.63-1.78,6.21,1.54,4.81C84,42.94,83.26,38.61,80.1,39.13Z" transform="translate(0.02 0.02)"/><path class="cls-1" d="M93.89,39.31a2.34,2.34,0,0,0-1.36,4c2.27,2.15,5.43-1.4,3.27-3.45A2.29,2.29,0,0,0,93.89,39.31Z" transform="translate(0.02 0.02)"/><path class="cls-1" d="M107.31,39.59a1.86,1.86,0,0,0-1.63,2,2.09,2.09,0,0,0,4.17,0,2,2,0,0,0-2.54-2Z" transform="translate(0.02 0.02)"/><path class="cls-1" d="M120.92,39.86a1.73,1.73,0,0,0-1.27,1,1.86,1.86,0,0,0,2.18,2.54C124,43,123.33,39.32,120.92,39.86Z" transform="translate(0.02 0.02)"/><path class="cls-1" d="M134.52,40.13a1.54,1.54,0,0,0-.63,2.63C136.27,44.9,137.9,39.26,134.52,40.13Z" transform="translate(0.02 0.02)"/><path class="cls-1" d="M148.49,40.4c-.87.1-1.15.57-1.18,1.09-.14,2.41,3.9.91,2.18-.82A1.34,1.34,0,0,0,148.49,40.4Z" transform="translate(0.02 0.02)"/><path class="cls-1" d="M161.92,40.86c-1.87.67,1.26,2.71,1.09.64C163,41,162.69,40.58,161.92,40.86Z" transform="translate(0.02 0.02)"/><path class="cls-1" d="M175.43,41.67C176.43,42.61,176,40.36,175.43,41.67Z" transform="translate(0.02 0.02)"/><path class="cls-1" d="M5.18,45a3.12,3.12,0,0,0-2.72,2.09A3.51,3.51,0,0,0,7,51.65C10.7,50.31,9.35,44.41,5.18,45Z" transform="translate(0.02 0.02)"/><path class="cls-1" d="M18.7,45.21a3.35,3.35,0,0,0-2.45,4.44c.92,2.36,5,3,6.17,0A4.13,4.13,0,0,0,21.69,46,3.47,3.47,0,0,0,18.7,45.21Z" transform="translate(0.02 0.02)"/><path class="cls-1" d="M32.3,45.39a2.68,2.68,0,0,0-1.72.91c-2.62,3,2,7,4.63,4.26a3.1,3.1,0,0,0-2.91-5.17Z" transform="translate(0.02 0.02)"/><path class="cls-1" d="M46,45.57a2.91,2.91,0,0,0-1.54,4.9,3,3,0,0,0,4.17,0A2.91,2.91,0,0,0,46,45.57Z" transform="translate(0.02 0.02)"/><path class="cls-1" d="M59.7,45.75a2.34,2.34,0,0,0-1.72.91,2.82,2.82,0,0,0,2.09,4.44C63.72,51.19,63.63,45.13,59.7,45.75Z" transform="translate(0.02 0.02)"/><path class="cls-1" d="M73.66,45.94a2.53,2.53,0,0,0-2.18,3.63c1.28,2.6,6.16.93,4.53-2.36A2.84,2.84,0,0,0,73.66,45.94Z" transform="translate(0.02 0.02)"/><path class="cls-1" d="M86.82,46.21c-2.63.57-1.77,4.11,0,4.44C90.38,51.32,90.57,45.4,86.82,46.21Z" transform="translate(0.02 0.02)"/><path class="cls-1" d="M100.6,46.39a2.06,2.06,0,0,0,.45,4.08C104,50.37,103.38,45.91,100.6,46.39Z" transform="translate(0.02 0.02)"/><path class="cls-1" d="M114.21,46.66c-2.17.41-1.59,3.62.45,3.54C117,50.1,116.87,46.15,114.21,46.66Z" transform="translate(0.02 0.02)"/><path class="cls-1" d="M127.9,46.93a1.35,1.35,0,0,0-1.27,1.42v0a1.54,1.54,0,0,0,3.08-.09h0a1.4,1.4,0,0,0-1.81-1.36Z" transform="translate(0.02 0.02)"/><path class="cls-1" d="M141.51,47.3c-.86.19-.91.62-.91,1.09,0,2,3.42,1.15,2.18-.73A1.18,1.18,0,0,0,141.51,47.3Z" transform="translate(0.02 0.02)"/><path class="cls-1" d="M155.75,47.66c-.22.06-.66-.11-.73.09-.35.11-.41.49-.36,1C155.35,49.84,156.84,48.35,155.75,47.66Z" transform="translate(0.02 0.02)"/><path class="cls-1" d="M168.63,48.48C169.63,49.42,169.18,47.17,168.63,48.48Z" transform="translate(0.02 0.02)"/><path class="cls-1" d="M12.17,52a3,3,0,0,0-2.91,3.09q0,.09,0,.18c.09,3.93,6.64,4.34,6.53-.18A3.19,3.19,0,0,0,12.54,52Z" transform="translate(0.02 0.02)"/><path class="cls-1" d="M0,52v6.35C3,58,3,52.43,0,52Z" transform="translate(0.02 0.02)"/><path class="cls-1" d="M25.68,52.19c-4.47.63-2.5,7.49,1.63,5.9C30.59,56.83,29.32,51.68,25.68,52.19Z" transform="translate(0.02 0.02)"/><path class="cls-1" d="M39.38,52.38c-3.56.46-3.11,5.8.45,5.71C43.55,58,43.46,51.85,39.38,52.38Z" transform="translate(0.02 0.02)"/><path class="cls-1" d="M53.26,52.56a2.64,2.64,0,0,0-2.45,3.63c1,2.81,6.42,1.69,5.08-2A2.76,2.76,0,0,0,53.26,52.56Z" transform="translate(0.02 0.02)"/><path class="cls-1" d="M66.41,52.83c-2.71.54-2.16,4.13-.36,4.72C70,58.85,70.59,52,66.41,52.83Z" transform="translate(0.02 0.02)"/><path class="cls-1" d="M80.19,53a2.24,2.24,0,0,0,.45,4.44C83.57,57.35,83.45,52.49,80.19,53Z" transform="translate(0.02 0.02)"/><path class="cls-1" d="M93.71,53.28a1.61,1.61,0,0,0-1.54,1.63c-.3,3,3.77,2.75,4,.54a1.91,1.91,0,0,0-2.46-2.17Z" transform="translate(0.02 0.02)"/><path class="cls-1" d="M107.22,53.55c-2,.53-1.06,3.11,0,3.36C110.14,57.59,110.31,52.73,107.22,53.55Z" transform="translate(0.02 0.02)"/><path class="cls-1" d="M120.92,53.83c-1.9.52-.91,3.22.91,2.81S123,53.27,120.92,53.83Z" transform="translate(0.02 0.02)"/><path class="cls-1" d="M134.52,54.19a1,1,0,0,0-.63.54c-.67,2.26,2.72,1.83,2.18,0a1.12,1.12,0,0,0-1.48-.58Z" transform="translate(0.02 0.02)"/><path class="cls-1" d="M148.22,54.64c-1.23.94,1.43,2,1,.18A.8.8,0,0,0,148.22,54.64Z" transform="translate(0.02 0.02)"/><path class="cls-1" d="M161.83,55.28C162.83,56.22,162.38,54,161.83,55.28Z" transform="translate(0.02 0.02)"/><path class="cls-1" d="M5.55,58.82a3,3,0,0,0-2.09.82c-3.12,3,1.68,7.7,4.63,4.63a3.24,3.24,0,0,0-2.54-5.45Z" transform="translate(0.02 0.02)"/><path class="cls-1" d="M19.24,59a2.87,2.87,0,0,0-2.9,2.27c-.86,4.11,5.21,5.14,6,1.45A3,3,0,0,0,19.24,59Z" transform="translate(0.02 0.02)"/><path class="cls-1" d="M32.76,59.18a2.88,2.88,0,0,0-1.09,5.44C36,66.58,37.55,58.82,32.76,59.18Z" transform="translate(0.02 0.02)"/><path class="cls-1" d="M45.91,59.45a2.47,2.47,0,0,0-2,1.9c-.75,3.84,4.67,4.28,5.26,1.27a2.65,2.65,0,0,0-3.26-3.17Z" transform="translate(0.02 0.02)"/><path class="cls-1" d="M59.7,59.63a2.46,2.46,0,0,0-1.36,4.08c2.29,2.41,5.86-1.34,3.54-3.54A2.43,2.43,0,0,0,59.7,59.63Z" transform="translate(0.02 0.02)"/><path class="cls-1" d="M73.57,59.81a2.23,2.23,0,0,0,.27,4.44C76.78,64.16,76.45,59.55,73.57,59.81Z" transform="translate(0.02 0.02)"/><path class="cls-1" d="M87,60.09a2,2,0,0,0-1.54,1.18c-1,3,3.11,3.51,3.81,1.45A1.93,1.93,0,0,0,87,60.09Z" transform="translate(0.02 0.02)"/><path class="cls-1" d="M100.51,60.36c-1,.24-1.06.69-1.18,1.09-.86,2.94,4.47,3,3.27-.18A1.71,1.71,0,0,0,100.51,60.36Z" transform="translate(0.02 0.02)"/><path class="cls-1" d="M115,60.63a1.6,1.6,0,0,0-.91.09,1.32,1.32,0,0,0-.91.82c-.4,1.66,1,2,1.81,1.81C116.69,63,115.74,60.8,115,60.63Z" transform="translate(0.02 0.02)"/><path class="cls-1" d="M127.9,61a1,1,0,0,0-.82,1,1.09,1.09,0,0,0,2.18,0,1,1,0,0,0-1.36-1Z" transform="translate(0.02 0.02)"/><path class="cls-1" d="M141.33,62.44a1.21,1.21,0,0,0,.91,0,1.21,1.21,0,0,0,0-.91.65.65,0,0,0-.91.91Z" transform="translate(0.02 0.02)"/><path class="cls-1" d="M155,62.08C156,63,155.55,60.77,155,62.08Z" transform="translate(0.02 0.02)"/><path class="cls-1" d="M0,65.8c.06,2-.12,4.17.09,6C2.66,71.13,2.67,66.36,0,65.8Z" transform="translate(0.02 0.02)"/><path class="cls-1" d="M11.9,65.89A3,3,0,0,0,10.36,71a3.2,3.2,0,0,0,4.35,0C17,68.69,14.6,65.37,11.9,65.89Z" transform="translate(0.02 0.02)"/><path class="cls-1" d="M25.59,66.07c-3,.52-3,5.08,0,5.53C30.11,72.29,29.88,65.32,25.59,66.07Z" transform="translate(0.02 0.02)"/><path class="cls-1" d="M39.2,66.25a2.49,2.49,0,0,0-2.12,2.81q0,.1,0,.19c.34,2.53,4.92,3.15,5.26-.09a2.6,2.6,0,0,0-3.17-2.91Z" transform="translate(0.02 0.02)"/><path class="cls-1" d="M52.71,66.53c-2.63.61-1.9,4-.27,4.54C56.36,72.35,56.87,65.56,52.71,66.53Z" transform="translate(0.02 0.02)"/><path class="cls-1" d="M66.5,66.71c-2.7.54-1.86,4.61.82,4.26C69.8,70.65,69.65,66.08,66.5,66.71Z" transform="translate(0.02 0.02)"/><path class="cls-1" d="M80.47,66.89c-3.12.21-1.84,4.55.73,3.81C83.43,70.05,82.55,66.74,80.47,66.89Z" transform="translate(0.02 0.02)"/><path class="cls-1" d="M93.62,67.25a1.68,1.68,0,0,0,1.09,3.17C96.76,69.9,95.71,66.27,93.62,67.25Z" transform="translate(0.02 0.02)"/><path class="cls-1" d="M107.4,67.52a1.17,1.17,0,0,0-1,1.09c-.22,2.34,3,1.87,2.72-.09C109,67.84,108.53,67.24,107.4,67.52Z" transform="translate(0.02 0.02)"/><path class="cls-1" d="M121,67.89c-.51.18-.79.41-.64,1.18a1,1,0,1,0,2-.54C122.28,68.06,121.91,67.58,121,67.89Z" transform="translate(0.02 0.02)"/><path class="cls-1" d="M134.52,69.25a.64.64,0,0,0,.91-.91.65.65,0,0,0-.91.91Z" transform="translate(0.02 0.02)"/><path class="cls-1" d="M148.22,68.88C149.22,69.82,148.77,67.57,148.22,68.88Z" transform="translate(0.02 0.02)"/><path class="cls-1" d="M5.28,72.69c-3.54.55-3.18,6,.54,5.9C9.85,78.49,9.38,72.06,5.28,72.69Z" transform="translate(0.02 0.02)"/><path class="cls-1" d="M18.88,72.87a2.79,2.79,0,0,0,.63,5.53C23.23,78.2,22.7,72.26,18.88,72.87Z" transform="translate(0.02 0.02)"/><path class="cls-1" d="M32.76,73.06c-3.62.29-2.79,5.25.27,5.17C36.47,78.14,36.18,72.78,32.76,73.06Z" transform="translate(0.02 0.02)"/><path class="cls-1" d="M46,73.33a2.56,2.56,0,0,0-1.27.63c-1.86,2.1,1.33,5.56,3.54,3.36a2.4,2.4,0,0,0-2.27-4Z" transform="translate(0.02 0.02)"/><path class="cls-1" d="M59.88,73.51a2.14,2.14,0,0,0,.36,4.26C62.85,77.68,63,73.1,59.88,73.51Z" transform="translate(0.02 0.02)"/><path class="cls-1" d="M73.3,73.78c-2.18.49-1.55,3.19-.27,3.63C76.11,78.47,76.58,73,73.3,73.78Z" transform="translate(0.02 0.02)"/><path class="cls-1" d="M87,74.05a1.39,1.39,0,0,0-1.27,1.45,1.64,1.64,0,0,0,3.27.18,1.48,1.48,0,0,0-2-1.63Z" transform="translate(0.02 0.02)"/><path class="cls-1" d="M100.87,74.33a1.21,1.21,0,0,0-1.27,1.18c-.13,2.31,4,1.34,2.45-.73A1.46,1.46,0,0,0,100.87,74.33Z" transform="translate(0.02 0.02)"/><path class="cls-1" d="M114.48,74.69c-1.64.22-.67,2.36.54,1.81a1,1,0,0,0-.54-1.81Z" transform="translate(0.02 0.02)"/><path class="cls-1" d="M127.9,76q.87.14.73-.73C128.15,74.72,127.3,75.57,127.9,76Z" transform="translate(0.02 0.02)"/><path class="cls-1" d="M141.42,75.69C142.42,76.63,142,74.38,141.42,75.69Z" transform="translate(0.02 0.02)"/><path class="cls-1" d="M0,79.68c.06,1.78-.12,3.81.09,5.44C2.33,84.49,2.34,80.2,0,79.68Z" transform="translate(0.02 0.02)"/><path class="cls-1" d="M11.81,79.77a2.43,2.43,0,0,0-1.9,1.81c-1.25,3.9,4.69,4.75,5.35,1.54a2.74,2.74,0,0,0-3.45-3.35Z" transform="translate(0.02 0.02)"/><path class="cls-1" d="M25.5,79.95a2.34,2.34,0,0,0-1.81,1.72c-1,3.79,4.15,4.3,4.9,1.45a2.49,2.49,0,0,0-3.09-3.17Z" transform="translate(0.02 0.02)"/><path class="cls-1" d="M39.29,80.13c-3.64.67-1.41,6,1.63,4.35a2.36,2.36,0,0,0-1.63-4.35Z" transform="translate(0.02 0.02)"/><path class="cls-1" d="M52.8,80.4c-3.5.78-.38,6,2.09,3.54A2.14,2.14,0,0,0,52.8,80.4Z" transform="translate(0.02 0.02)"/><path class="cls-1" d="M66.86,80.58c-2.25.17-2.39,3.63,0,3.72C69.51,84.4,69.21,80.41,66.86,80.58Z" transform="translate(0.02 0.02)"/><path class="cls-1" d="M80.38,80.86c-2.15.29-1.5,3.25.27,3.17C82.6,83.94,82.69,80.55,80.38,80.86Z" transform="translate(0.02 0.02)"/><path class="cls-1" d="M93.8,81.22a1.11,1.11,0,0,0-.91,1.09c-.11,2.08,2.72,1.63,2.54-.09C95.36,81.51,94.87,80.93,93.8,81.22Z" transform="translate(0.02 0.02)"/><path class="cls-1" d="M107.5,81.58a.77.77,0,0,0-.63.88v0a.91.91,0,1,0,1.82-.12v-.06C108.64,81.77,108.29,81.34,107.5,81.58Z" transform="translate(0.02 0.02)"/><path class="cls-1" d="M121.1,82.85q.87.14.73-.73C121.35,81.52,120.5,82.37,121.1,82.85Z" transform="translate(0.02 0.02)"/><path class="cls-1" d="M134.62,82.49C135.62,83.43,135.17,81.18,134.62,82.49Z" transform="translate(0.02 0.02)"/><path class="cls-1" d="M6.91,86.66a3.84,3.84,0,0,0-1.81-.09c-3.88.81-1.74,6.69,1.81,5.17C9.34,90.7,8.52,87.35,6.91,86.66Z" transform="translate(0.02 0.02)"/><path class="cls-1" d="M18.88,86.75c-3.77.63-1.78,6.21,1.54,4.81C22.81,90.55,22,86.23,18.88,86.75Z" transform="translate(0.02 0.02)"/><path class="cls-1" d="M32.3,87a2.35,2.35,0,0,0-1.54,1.27c-1.19,3.38,3.51,4.2,4.35,1.81A2.3,2.3,0,0,0,32.3,87Z" transform="translate(0.02 0.02)"/><path class="cls-1" d="M46.09,87.21a1.86,1.86,0,0,0-1.63,2,2.09,2.09,0,0,0,4.17,0,2,2,0,0,0-2.54-2Z" transform="translate(0.02 0.02)"/><path class="cls-1" d="M59.7,87.48a1.73,1.73,0,0,0-1.27,1A1.86,1.86,0,0,0,60.6,91C62.82,90.61,62.1,86.94,59.7,87.48Z" transform="translate(0.02 0.02)"/><path class="cls-1" d="M73.3,87.75a1.54,1.54,0,0,0-.63,2.63C75,92.52,76.68,86.87,73.3,87.75Z" transform="translate(0.02 0.02)"/><path class="cls-1" d="M87.27,88c-.87.1-1.15.57-1.18,1.09-.14,2.41,3.9.91,2.18-.82A1.34,1.34,0,0,0,87.27,88Z" transform="translate(0.02 0.02)"/><path class="cls-1" d="M100.69,88.47c-1.87.67,1.26,2.72,1.09.64C101.74,88.62,101.46,88.2,100.69,88.47Z" transform="translate(0.02 0.02)"/><path class="cls-1" d="M114.21,89.29C115.21,90.23,114.76,88,114.21,89.29Z" transform="translate(0.02 0.02)"/><path class="cls-1" d="M12.35,93.55a2.53,2.53,0,0,0-2.18,3.63c1.28,2.59,6.16.93,4.53-2.36A2.84,2.84,0,0,0,12.35,93.55Z" transform="translate(0.02 0.02)"/><path class="cls-1" d="M0,93.64v4.72C2,97.8,2,94.2,0,93.64Z" transform="translate(0.02 0.02)"/><path class="cls-1" d="M25.5,93.83c-2.63.57-1.77,4.11,0,4.44C29.07,98.94,29.26,93,25.5,93.83Z" transform="translate(0.02 0.02)"/><path class="cls-1" d="M39,94.1c-2,.43-1.5,3.54,0,3.9C42.24,98.78,42.73,93.27,39,94.1Z" transform="translate(0.02 0.02)"/><path class="cls-1" d="M52.89,94.28c-2.17.41-1.59,3.62.45,3.54C55.71,97.72,55.56,93.77,52.89,94.28Z" transform="translate(0.02 0.02)"/><path class="cls-1" d="M66.59,94.55A1.35,1.35,0,0,0,65.32,96v0a1.54,1.54,0,0,0,3.08-.09h0a1.4,1.4,0,0,0-1.81-1.36Z" transform="translate(0.02 0.02)"/><path class="cls-1" d="M80.19,94.91c-.86.19-.91.62-.91,1.09,0,2,3.42,1.15,2.18-.73A1.18,1.18,0,0,0,80.19,94.91Z" transform="translate(0.02 0.02)"/><path class="cls-1" d="M94.43,95.28c-.22.05-.66-.11-.73.09-.35.11-.41.49-.36,1C94,97.45,95.52,96,94.43,95.28Z" transform="translate(0.02 0.02)"/><path class="cls-1" d="M107.31,96.09C108.31,97,107.86,94.78,107.31,96.09Z" transform="translate(0.02 0.02)"/><path class="cls-1" d="M5.09,100.45c-2.71.54-2.16,4.13-.36,4.72C8.71,106.47,9.28,99.62,5.09,100.45Z" transform="translate(0.02 0.02)"/><path class="cls-1" d="M18.88,100.63a2.24,2.24,0,0,0,.45,4.44C22.26,105,22.13,100.1,18.88,100.63Z" transform="translate(0.02 0.02)"/><path class="cls-1" d="M32.39,100.9a1.61,1.61,0,0,0-1.54,1.63c-.3,3,3.77,2.75,4,.54a1.91,1.91,0,0,0-2.46-2.17Z" transform="translate(0.02 0.02)"/><path class="cls-1" d="M45.91,101.17c-2,.53-1.06,3.11,0,3.36C48.82,105.2,49,100.35,45.91,101.17Z" transform="translate(0.02 0.02)"/><path class="cls-1" d="M59.61,101.45c-1.9.52-.91,3.21.91,2.81S61.65,100.89,59.61,101.45Z" transform="translate(0.02 0.02)"/><path class="cls-1" d="M73.21,101.81a1,1,0,0,0-.63.54c-.67,2.26,2.72,1.83,2.18,0a1.12,1.12,0,0,0-1.48-.58Z" transform="translate(0.02 0.02)"/><path class="cls-1" d="M86.91,102.26c-1.23.94,1.43,2,1,.18A.8.8,0,0,0,86.91,102.26Z" transform="translate(0.02 0.02)"/><path class="cls-1" d="M100.51,102.9C101.51,103.84,101.06,101.59,100.51,102.9Z" transform="translate(0.02 0.02)"/><path class="cls-1" d="M12.26,107.43a2.23,2.23,0,0,0,.27,4.44C15.47,111.78,15.14,107.17,12.26,107.43Z" transform="translate(0.02 0.02)"/><path class="cls-1" d="M0,107.52a37.42,37.42,0,0,0,.09,4.17C1.53,111.09,1.55,108,0,107.52Z" transform="translate(0.02 0.02)"/><path class="cls-1" d="M25.68,107.7a2,2,0,0,0-1.54,1.18c-1,3,3.11,3.51,3.81,1.45a1.93,1.93,0,0,0-2.27-2.63Z" transform="translate(0.02 0.02)"/><path class="cls-1" d="M39.2,108c-1,.24-1.06.69-1.18,1.09-.86,2.94,4.47,3,3.27-.18A1.71,1.71,0,0,0,39.2,108Z" transform="translate(0.02 0.02)"/><path class="cls-1" d="M53.71,108.25a1.6,1.6,0,0,0-.91.09,1.32,1.32,0,0,0-.91.82c-.4,1.66,1,2,1.81,1.81C55.38,110.57,54.43,108.42,53.71,108.25Z" transform="translate(0.02 0.02)"/><path class="cls-1" d="M66.59,108.61a1,1,0,0,0-.82,1,1.09,1.09,0,1,0,2.18,0h0a1,1,0,0,0-1.36-1Z" transform="translate(0.02 0.02)"/><path class="cls-1" d="M80,110.06a.64.64,0,0,0,.91-.91h0a.65.65,0,0,0-.91.91Z" transform="translate(0.02 0.02)"/><path class="cls-1" d="M93.71,109.7C94.71,110.64,94.26,108.39,93.71,109.7Z" transform="translate(0.02 0.02)"/><path class="cls-1" d="M5.18,114.32c-2.7.54-1.86,4.61.82,4.26C8.49,118.27,8.34,113.7,5.18,114.32Z" transform="translate(0.02 0.02)"/><path class="cls-1" d="M19.15,114.51c-3.12.21-1.84,4.55.73,3.81C22.12,117.67,21.24,114.36,19.15,114.51Z" transform="translate(0.02 0.02)"/><path class="cls-1" d="M32.3,114.87A1.68,1.68,0,0,0,33.39,118C35.45,117.52,34.39,113.89,32.3,114.87Z" transform="translate(0.02 0.02)"/><path class="cls-1" d="M46.09,115.14a1.18,1.18,0,0,0-1,1.09c-.22,2.34,3,1.87,2.72-.09C47.71,115.46,47.22,114.86,46.09,115.14Z" transform="translate(0.02 0.02)"/><path class="cls-1" d="M59.7,115.5c-.51.18-.79.41-.63,1.18a1,1,0,1,0,2-.54C61,115.67,60.6,115.19,59.7,115.5Z" transform="translate(0.02 0.02)"/><path class="cls-1" d="M73.21,116.86a.64.64,0,1,0,.91-.91.65.65,0,0,0-.91.91Z" transform="translate(0.02 0.02)"/><path class="cls-1" d="M86.91,116.5C87.91,117.44,87.46,115.19,86.91,116.5Z" transform="translate(0.02 0.02)"/><path class="cls-1" d="M12,121.4c-2.18.49-1.55,3.19-.27,3.63C14.8,126.09,15.26,120.66,12,121.4Z" transform="translate(0.02 0.02)"/><path class="cls-1" d="M0,121.49a25.44,25.44,0,0,0,.09,3.45C1.17,124.4,1.21,121.91,0,121.49Z" transform="translate(0.02 0.02)"/><path class="cls-1" d="M25.68,121.67a1.39,1.39,0,0,0-1.27,1.45c-.1,2.36,3.18,2.18,3.27.18a1.49,1.49,0,0,0-2-1.63Z" transform="translate(0.02 0.02)"/><path class="cls-1" d="M39.56,121.94a1.21,1.21,0,0,0-1.27,1.18c-.13,2.31,4,1.34,2.45-.73A1.46,1.46,0,0,0,39.56,121.94Z" transform="translate(0.02 0.02)"/><path class="cls-1" d="M53.17,122.31c-1.64.22-.67,2.36.54,1.81a1,1,0,0,0-.54-1.81Z" transform="translate(0.02 0.02)"/><path class="cls-1" d="M66.59,123.67q.87.14.73-.73C66.84,122.34,66,123.19,66.59,123.67Z" transform="translate(0.02 0.02)"/><path class="cls-1" d="M80.1,123.3C81.1,124.24,80.65,122,80.1,123.3Z" transform="translate(0.02 0.02)"/><path class="cls-1" d="M5.55,128.2c-2.25.17-2.39,3.63,0,3.72C8.19,132,7.9,128,5.55,128.2Z" transform="translate(0.02 0.02)"/><path class="cls-1" d="M19.06,128.47c-2.15.29-1.5,3.25.27,3.17C21.28,131.56,21.37,128.17,19.06,128.47Z" transform="translate(0.02 0.02)"/><path class="cls-1" d="M32.49,128.84a1.11,1.11,0,0,0-.91,1.09c-.11,2.08,2.72,1.63,2.54-.09A1.15,1.15,0,0,0,32.49,128.84Z" transform="translate(0.02 0.02)"/><path class="cls-1" d="M46.18,129.2a.77.77,0,0,0-.65.88v0a.91.91,0,0,0,1.82-.12v-.06C47.32,129.39,47,129,46.18,129.2Z" transform="translate(0.02 0.02)"/><path class="cls-1" d="M59.79,130.47q.87.14.73-.73C60,129.14,59.19,130,59.79,130.47Z" transform="translate(0.02 0.02)"/><path class="cls-1" d="M73.3,130.11C74.3,131.05,73.85,128.8,73.3,130.11Z" transform="translate(0.02 0.02)"/><path class="cls-1" d="M12,135.37a1.54,1.54,0,0,0-.63,2.63C13.73,140.14,15.36,134.49,12,135.37Z" transform="translate(0.02 0.02)"/><path class="cls-1" d="M0,135.46a15.82,15.82,0,0,0,.09,2.72A2,2,0,0,0,0,135.46Z" transform="translate(0.02 0.02)"/><path class="cls-1" d="M26,135.64c-.87.1-1.15.57-1.18,1.09-.14,2.41,3.9.91,2.18-.82A1.34,1.34,0,0,0,26,135.64Z" transform="translate(0.02 0.02)"/><path class="cls-1" d="M39.38,136.09c-1.87.67,1.26,2.71,1.09.63C40.43,136.23,40.15,135.82,39.38,136.09Z" transform="translate(0.02 0.02)"/><path class="cls-1" d="M52.89,136.91C53.89,137.85,53.44,135.6,52.89,136.91Z" transform="translate(0.02 0.02)"/><path class="cls-1" d="M5.37,142.17a1.35,1.35,0,0,0-1.27,1.42v0a1.54,1.54,0,0,0,3.08-.09,1.4,1.4,0,0,0-1.81-1.36Z" transform="translate(0.02 0.02)"/><path class="cls-1" d="M19,142.53c-.86.19-.91.62-.91,1.09,0,2,3.42,1.15,2.18-.73A1.18,1.18,0,0,0,19,142.53Z" transform="translate(0.02 0.02)"/><path class="cls-1" d="M33.21,142.9c-.22.06-.66-.11-.73.09-.35.11-.41.5-.36,1C32.81,145.07,34.3,143.59,33.21,142.9Z" transform="translate(0.02 0.02)"/><path class="cls-1" d="M46.09,143.71C47.09,144.65,46.64,142.4,46.09,143.71Z" transform="translate(0.02 0.02)"/><path class="cls-1" d="M12,149.43a1,1,0,0,0-.63.54c-.67,2.26,2.72,1.83,2.18,0a1.12,1.12,0,0,0-1.48-.58Z" transform="translate(0.02 0.02)"/><path class="cls-1" d="M.11,151.15c.09-.41.2-1.18-.09-1.45C.07,150.15-.1,150.84.11,151.15Z" transform="translate(0.02 0.02)"/><path class="cls-1" d="M25.68,149.88c-1.23.94,1.43,2,1,.18A.8.8,0,0,0,25.68,149.88Z" transform="translate(0.02 0.02)"/><path class="cls-1" d="M39.29,150.51C40.29,151.45,39.84,149.2,39.29,150.51Z" transform="translate(0.02 0.02)"/><path class="cls-1" d="M5.37,156.23a1,1,0,0,0-.82,1,1.09,1.09,0,0,0,2.18,0,1,1,0,0,0-1.36-1Z" transform="translate(0.02 0.02)"/><path class="cls-1" d="M18.79,157.68a1.21,1.21,0,0,0,.91,0,1.21,1.21,0,0,0,0-.91.65.65,0,0,0-.91.91Z" transform="translate(0.02 0.02)"/><path class="cls-1" d="M32.49,157.32C33.49,158.26,33,156,32.49,157.32Z" transform="translate(0.02 0.02)"/><path class="cls-1" d="M12,164.48a1.21,1.21,0,0,0,.91,0,1.21,1.21,0,0,0,0-.91.65.65,0,0,0-.91.91Z" transform="translate(0.02 0.02)"/><path class="cls-1" d="M25.68,164.12C26.68,165.06,26.23,162.81,25.68,164.12Z" transform="translate(0.02 0.02)"/><path class="cls-1" d="M5.37,171.29q.87.14.73-.73C5.61,170,4.76,170.81,5.37,171.29Z" transform="translate(0.02 0.02)"/><path class="cls-1" d="M18.88,170.92C19.88,171.86,19.43,169.61,18.88,170.92Z" transform="translate(0.02 0.02)"/><path class="cls-1" d="M12.08,177.72C13.08,178.66,12.63,176.41,12.08,177.72Z" transform="translate(0.02 0.02)"/></svg>