<svg id="Layer_1" data-name="Layer 1" xmlns="http://www.w3.org/2000/svg" viewBox="0 0 210.49 177.96"><defs><style>.cls-1{fill:#163962;fill-rule:evenodd;}</style></defs><title>halfTone_right</title><path class="cls-1" d="M247.75,199.92h2.72v-4.35C248.69,196.14,247.61,197.42,247.75,199.92Z" transform="translate(-40 -22)"/><path class="cls-1" d="M234.15,199.92h7.53C242.73,194.16,233.41,193.78,234.15,199.92Z" transform="translate(-40 -22)"/><path class="cls-1" d="M220.54,199.92h7.53C229.13,194.16,219.8,193.78,220.54,199.92Z" transform="translate(-40 -22)"/><path class="cls-1" d="M207,199.92h7.35C215.49,194.26,206.23,193.88,207,199.92Z" transform="translate(-40 -22)"/><path class="cls-1" d="M193.6,199.92h7c.11,0,.1-.14.09-.27C201.61,194.32,192.42,194.45,193.6,199.92Z" transform="translate(-40 -22)"/><path class="cls-1" d="M186.8,199.92c.11,0,.1-.14.09-.27.94-5.11-7.92-5-6.71.27Z" transform="translate(-40 -22)"/><path class="cls-1" d="M173,199.92c.13,0,.1-.2.18-.27.65-5-7.59-4.65-6.44.27Z" transform="translate(-40 -22)"/><path class="cls-1" d="M159.23,199.92c1.45-4.76-7.11-5-5.9,0Z" transform="translate(-40 -22)"/><path class="cls-1" d="M145.44,199.92c1.39-4.51-6.69-4.75-5.53,0Z" transform="translate(-40 -22)"/><path class="cls-1" d="M131.66,199.92c1.37-4.28-6.3-4.51-5.17,0Z" transform="translate(-40 -22)"/><path class="cls-1" d="M117.78,199.92c1.48-4-5.87-4.21-4.63,0Z" transform="translate(-40 -22)"/><path class="cls-1" d="M104,199.92c1.34-3.7-5.37-3.94-4.26,0Z" transform="translate(-40 -22)"/><path class="cls-1" d="M90.11,199.92c.36-.15.1-.93.18-1.36-.57-2.1-4.72-1.71-4,1.27A31.55,31.55,0,0,0,90.11,199.92Z" transform="translate(-40 -22)"/><path class="cls-1" d="M76.24,199.92c1.43-3-4.37-3.29-3.17,0Z" transform="translate(-40 -22)"/><path class="cls-1" d="M62.45,199.92c1.08-2.82-3.8-2.82-2.72,0Z" transform="translate(-40 -22)"/><path class="cls-1" d="M48.57,198.74a1.18,1.18,0,1,0-2.09,1.09C47.71,200.11,49,200,48.57,198.74Z" transform="translate(-40 -22)"/><path class="cls-1" d="M243.67,188.67c-4.4,1.16-3,8.32,1.81,7.44a3.68,3.68,0,0,0,3.08-3A3.92,3.92,0,0,0,243.67,188.67Z" transform="translate(-40 -22)"/><path class="cls-1" d="M230.07,188.67c-4.4,1.16-3,8.32,1.81,7.44a3.67,3.67,0,0,0,3.08-3A3.92,3.92,0,0,0,230.07,188.67Z" transform="translate(-40 -22)"/><path class="cls-1" d="M216.82,188.67c-4.47.73-3.6,8.27,1.45,7.35C222.93,195.17,221.78,187.86,216.82,188.67Z" transform="translate(-40 -22)"/><path class="cls-1" d="M200.32,192.48a3.54,3.54,0,0,0,4,3.45,3.33,3.33,0,0,0,3.27-3.63C207.47,187.92,200.19,187.49,200.32,192.48Z" transform="translate(-40 -22)"/><path class="cls-1" d="M190.61,195.75a3.17,3.17,0,0,0,3.17-3.45c-.1-4.13-6.89-4.56-6.89.09A3.37,3.37,0,0,0,190.61,195.75Z" transform="translate(-40 -22)"/><path class="cls-1" d="M177.1,195.57a3,3,0,0,0,2.9-3.27c-.09-3.93-6.64-4.34-6.53.18A3.18,3.18,0,0,0,177.1,195.57Z" transform="translate(-40 -22)"/><path class="cls-1" d="M163.58,195.39c4.47-.63,2.5-7.49-1.63-5.9C158.68,190.75,159.95,195.9,163.58,195.39Z" transform="translate(-40 -22)"/><path class="cls-1" d="M149.89,195.21c3.56-.46,3.11-5.8-.45-5.71C145.71,189.58,145.8,195.73,149.89,195.21Z" transform="translate(-40 -22)"/><path class="cls-1" d="M136.28,195a2.49,2.49,0,0,0,2.36-2.72c-.08-3.43-5.53-3.46-5.44.18A2.56,2.56,0,0,0,136.28,195Z" transform="translate(-40 -22)"/><path class="cls-1" d="M122.86,194.75c2.71-.54,2.16-4.13.36-4.72C119.24,188.73,118.67,195.58,122.86,194.75Z" transform="translate(-40 -22)"/><path class="cls-1" d="M109.07,194.57a2.24,2.24,0,0,0-.45-4.44C105.69,190.23,105.82,195.09,109.07,194.57Z" transform="translate(-40 -22)"/><path class="cls-1" d="M95.56,194.3a1.61,1.61,0,0,0,1.54-1.63c.3-3-3.77-2.75-4-.54A1.91,1.91,0,0,0,95.56,194.3Z" transform="translate(-40 -22)"/><path class="cls-1" d="M82,194c2-.53,1.06-3.11,0-3.36C79.13,190,79,194.85,82,194Z" transform="translate(-40 -22)"/><path class="cls-1" d="M68.35,193.75c1.9-.52.91-3.22-.91-2.81S66.31,194.31,68.35,193.75Z" transform="translate(-40 -22)"/><path class="cls-1" d="M54.74,193.39a1,1,0,0,0,.64-.54c.67-2.26-2.72-1.83-2.18,0A1.12,1.12,0,0,0,54.74,193.39Z" transform="translate(-40 -22)"/><path class="cls-1" d="M40,192.76a.8.8,0,0,0,1,.18C42.28,192,39.62,191,40,192.76Z" transform="translate(-40 -22)"/><path class="cls-1" d="M236.87,181.87c-4.4,1.15-3,8.32,1.81,7.44a3.67,3.67,0,0,0,3.08-3A3.92,3.92,0,0,0,236.87,181.87Z" transform="translate(-40 -22)"/><path class="cls-1" d="M223.81,181.87a3.74,3.74,0,0,0-3.17,4.26,3.63,3.63,0,0,0,4.35,3.08,3.49,3.49,0,0,0,3.08-3.17A3.74,3.74,0,0,0,223.81,181.87Z" transform="translate(-40 -22)"/><path class="cls-1" d="M250.47,189.22V182C247,182.39,247,188.79,250.47,189.22Z" transform="translate(-40 -22)"/><path class="cls-1" d="M207.39,184.23A3.62,3.62,0,0,0,214.1,187C215.87,182.12,208.87,180.19,207.39,184.23Z" transform="translate(-40 -22)"/><path class="cls-1" d="M197.87,188.86a3.11,3.11,0,0,0,2.45-1.9,3.41,3.41,0,0,0-1.81-4.54,3.62,3.62,0,0,0-4.53,1.81A3.39,3.39,0,0,0,197.87,188.86Z" transform="translate(-40 -22)"/><path class="cls-1" d="M183.72,188.77a3,3,0,0,0,2.09-.82c3.12-3-1.68-7.7-4.63-4.63A3.24,3.24,0,0,0,183.72,188.77Z" transform="translate(-40 -22)"/><path class="cls-1" d="M170,188.58a2.87,2.87,0,0,0,2.9-2.27c.86-4.11-5.21-5.14-6-1.45A3,3,0,0,0,170,188.58Z" transform="translate(-40 -22)"/><path class="cls-1" d="M156.51,188.4A2.88,2.88,0,0,0,157.6,183C153.23,181,151.72,188.76,156.51,188.4Z" transform="translate(-40 -22)"/><path class="cls-1" d="M143.36,188.13a2.47,2.47,0,0,0,2-1.9c.75-3.84-4.67-4.28-5.26-1.27A2.65,2.65,0,0,0,143.36,188.13Z" transform="translate(-40 -22)"/><path class="cls-1" d="M129.57,187.95a2.46,2.46,0,0,0,1.36-4.08c-2.29-2.41-5.86,1.34-3.54,3.54A2.42,2.42,0,0,0,129.57,187.95Z" transform="translate(-40 -22)"/><path class="cls-1" d="M115.69,187.77a2.23,2.23,0,0,0-.27-4.44C112.48,183.42,112.81,188,115.69,187.77Z" transform="translate(-40 -22)"/><path class="cls-1" d="M102.27,187.5a2,2,0,0,0,1.54-1.18c1-3-3.11-3.51-3.81-1.45A1.93,1.93,0,0,0,102.27,187.5Z" transform="translate(-40 -22)"/><path class="cls-1" d="M88.75,187.22c1-.24,1.06-.69,1.18-1.09.86-2.94-4.47-3-3.27.18A1.71,1.71,0,0,0,88.75,187.22Z" transform="translate(-40 -22)"/><path class="cls-1" d="M75.06,187a1.3,1.3,0,0,0,1.09-1.18c.23-2.43-3.19-2-2.9.09A1.31,1.31,0,0,0,75.06,187Z" transform="translate(-40 -22)"/><path class="cls-1" d="M61.36,186.59a1,1,0,0,0,.82-1,1.09,1.09,0,0,0-2.18,0A1,1,0,0,0,61.36,186.59Z" transform="translate(-40 -22)"/><path class="cls-1" d="M47.85,186.13c1.23-.94-1.43-2-1-.18A.8.8,0,0,0,47.85,186.13Z" transform="translate(-40 -22)"/><path class="cls-1" d="M245.39,182.51a3.59,3.59,0,0,0,3.17-3.27c.56-5.06-7.12-5.78-7.62-.91A3.74,3.74,0,0,0,245.39,182.51Z" transform="translate(-40 -22)"/><path class="cls-1" d="M231.43,175.07a3.78,3.78,0,0,0-4,4.08,3.7,3.7,0,0,0,4.26,3.27h.18C235.84,181.8,235.8,175.34,231.43,175.07Z" transform="translate(-40 -22)"/><path class="cls-1" d="M215.19,176.07c-2.43,2-.91,6.86,3,6.17a3.28,3.28,0,0,0,2.09-1.09C223,177.94,218.66,173.16,215.19,176.07Z" transform="translate(-40 -22)"/><path class="cls-1" d="M204.67,182.05c3.68-.74,3.25-6,0-6.62a3.49,3.49,0,0,0-4.08,4.08A3.4,3.4,0,0,0,204.67,182.05Z" transform="translate(-40 -22)"/><path class="cls-1" d="M189.07,181.78a4.27,4.27,0,0,0,2,.09,3.39,3.39,0,0,0,2.27-1.81,3.57,3.57,0,0,0,0-2.54,3.47,3.47,0,0,0-4.26-1.72C186.35,176.87,186.85,180.9,189.07,181.78Z" transform="translate(-40 -22)"/><path class="cls-1" d="M177.37,181.69a3,3,0,0,0,1.54-5.08,3.2,3.2,0,0,0-4.35,0C172.27,178.89,174.67,182.21,177.37,181.69Z" transform="translate(-40 -22)"/><path class="cls-1" d="M163.67,181.51c3-.52,3-5.08,0-5.53C159.16,175.29,159.39,182.26,163.67,181.51Z" transform="translate(-40 -22)"/><path class="cls-1" d="M150.07,181.33a2.49,2.49,0,0,0,2.09-3c-.34-2.53-4.92-3.15-5.26.09A2.6,2.6,0,0,0,150.07,181.33Z" transform="translate(-40 -22)"/><path class="cls-1" d="M136.28,181.15a2.42,2.42,0,0,0-.36-4.81C132.53,176.34,133,181.64,136.28,181.15Z" transform="translate(-40 -22)"/><path class="cls-1" d="M122.86,180.87c2.89-.64,1.54-4.77-1.09-4.26C119.36,177.08,119.75,181.57,122.86,180.87Z" transform="translate(-40 -22)"/><path class="cls-1" d="M108.8,180.69c3.12-.21,1.84-4.55-.73-3.81C105.83,177.53,106.72,180.84,108.8,180.69Z" transform="translate(-40 -22)"/><path class="cls-1" d="M95.65,180.33a1.68,1.68,0,0,0-1.09-3.17C92.5,177.68,93.56,181.31,95.65,180.33Z" transform="translate(-40 -22)"/><path class="cls-1" d="M81.86,180.06a1.18,1.18,0,0,0,1-1.09c.22-2.34-3-1.87-2.72.09C80.24,179.74,80.73,180.34,81.86,180.06Z" transform="translate(-40 -22)"/><path class="cls-1" d="M68.26,179.69c.51-.18.79-.41.64-1.18a1,1,0,0,0-2,.54C67,179.52,67.36,180,68.26,179.69Z" transform="translate(-40 -22)"/><path class="cls-1" d="M54.74,178.33a1.21,1.21,0,0,0-.91,0,1.21,1.21,0,0,0,0,.91A.65.65,0,0,0,54.74,178.33Z" transform="translate(-40 -22)"/><path class="cls-1" d="M41,178.7c-1-.94-.55,1.31,0,0Z" transform="translate(-40 -22)"/><path class="cls-1" d="M234.24,172.08a3.67,3.67,0,0,0,3.9,3.54,3.54,3.54,0,0,0,3.54-3.72C241.57,167.28,234.13,167.12,234.24,172.08Z" transform="translate(-40 -22)"/><path class="cls-1" d="M250.47,175.61v-7.26C247,168.85,247,175.12,250.47,175.61Z" transform="translate(-40 -22)"/><path class="cls-1" d="M224.26,168.45a3.54,3.54,0,0,0-3.45,3.63,3.59,3.59,0,0,0,6.71,1.54A3.54,3.54,0,0,0,224.26,168.45Z" transform="translate(-40 -22)"/><path class="cls-1" d="M211.2,175.25a3.15,3.15,0,0,0,2.9-3.36,3.42,3.42,0,0,0-5.71-2.36A3.34,3.34,0,0,0,211.2,175.25Z" transform="translate(-40 -22)"/><path class="cls-1" d="M197.69,175.07a3.06,3.06,0,0,0,2.63-3.54c-.46-3.79-6.88-3.55-6.35.91A3.19,3.19,0,0,0,197.69,175.07Z" transform="translate(-40 -22)"/><path class="cls-1" d="M184,174.89c3.54-.55,3.18-6-.54-5.9C179.41,169.09,179.89,175.52,184,174.89Z" transform="translate(-40 -22)"/><path class="cls-1" d="M170.39,174.71a2.79,2.79,0,0,0-.64-5.53C166,169.38,166.56,175.32,170.39,174.71Z" transform="translate(-40 -22)"/><path class="cls-1" d="M156.69,174.52c3.14-.45,2.83-5.27-.45-5.17S153,175.07,156.69,174.52Z" transform="translate(-40 -22)"/><path class="cls-1" d="M143.27,174.25a2.56,2.56,0,0,0,1.27-.63c1.86-2.1-1.33-5.56-3.54-3.36A2.4,2.4,0,0,0,143.27,174.25Z" transform="translate(-40 -22)"/><path class="cls-1" d="M129.39,174.07a2.14,2.14,0,0,0-.36-4.26C126.42,169.9,126.28,174.48,129.39,174.07Z" transform="translate(-40 -22)"/><path class="cls-1" d="M116,173.8c2.18-.49,1.55-3.19.27-3.63C113.15,169.11,112.69,174.53,116,173.8Z" transform="translate(-40 -22)"/><path class="cls-1" d="M102.27,173.53a1.38,1.38,0,0,0,1.27-1.45c.1-2.36-3.18-2.18-3.26-.18A1.48,1.48,0,0,0,102.27,173.53Z" transform="translate(-40 -22)"/><path class="cls-1" d="M88.39,173.26c.85-.08,1.23-.54,1.27-1.18.13-2.31-4-1.34-2.45.73A1.46,1.46,0,0,0,88.39,173.26Z" transform="translate(-40 -22)"/><path class="cls-1" d="M74.79,172.89c1.64-.22.67-2.36-.54-1.81A1,1,0,0,0,74.79,172.89Z" transform="translate(-40 -22)"/><path class="cls-1" d="M61.36,171.53q-.87-.14-.73.73C61.11,172.86,62,172,61.36,171.53Z" transform="translate(-40 -22)"/><path class="cls-1" d="M47.85,171.89c-1-.94-.55,1.31,0,0Z" transform="translate(-40 -22)"/><path class="cls-1" d="M241.13,165.91a3.64,3.64,0,0,0,4.35,2.81,3.41,3.41,0,0,0,2.9-2.81C249.29,160.39,240.17,160,241.13,165.91Z" transform="translate(-40 -22)"/><path class="cls-1" d="M231.43,168.63a3.25,3.25,0,0,0,3.27-3.45c0-4.3-7.19-4.83-7.07.09A3.47,3.47,0,0,0,231.43,168.63Z" transform="translate(-40 -22)"/><path class="cls-1" d="M217.91,168.45a3,3,0,0,0,2.72-1.9c2.15-5-6.44-6.5-6.44-1.36A3.22,3.22,0,0,0,217.91,168.45Z" transform="translate(-40 -22)"/><path class="cls-1" d="M204.31,168.27a2.91,2.91,0,0,0,2.81-3.17c-.09-3.72-6.35-4.28-6.35.09A3.1,3.1,0,0,0,204.31,168.27Z" transform="translate(-40 -22)"/><path class="cls-1" d="M190.61,168.09c3.77-.36,3.31-5.9-.27-5.9C186.35,162.19,186.64,168.47,190.61,168.09Z" transform="translate(-40 -22)"/><path class="cls-1" d="M177,167.9c3.51-.37,3.1-5.53-.27-5.53C173,162.37,173.29,168.3,177,167.9Z" transform="translate(-40 -22)"/><path class="cls-1" d="M163.76,167.63a2.34,2.34,0,0,0,1.81-1.72c1-3.79-4.15-4.3-4.9-1.45A2.49,2.49,0,0,0,163.76,167.63Z" transform="translate(-40 -22)"/><path class="cls-1" d="M150,167.45c3.64-.67,1.41-6-1.63-4.35A2.36,2.36,0,0,0,150,167.45Z" transform="translate(-40 -22)"/><path class="cls-1" d="M136.46,167.18c3.5-.78.38-6-2.09-3.54A2.14,2.14,0,0,0,136.46,167.18Z" transform="translate(-40 -22)"/><path class="cls-1" d="M122.4,167c2.25-.17,2.39-3.63,0-3.72C119.76,163.18,120.05,167.17,122.4,167Z" transform="translate(-40 -22)"/><path class="cls-1" d="M108.89,166.72c2.15-.29,1.5-3.25-.27-3.17C106.67,163.64,106.58,167,108.89,166.72Z" transform="translate(-40 -22)"/><path class="cls-1" d="M95.47,166.36a1.11,1.11,0,0,0,.91-1.09c.11-2.08-2.72-1.63-2.54.09C93.91,166.07,94.4,166.65,95.47,166.36Z" transform="translate(-40 -22)"/><path class="cls-1" d="M81.77,166a.77.77,0,0,0,.64-.91.91.91,0,1,0-1.81.18C80.63,165.81,81,166.25,81.77,166Z" transform="translate(-40 -22)"/><path class="cls-1" d="M68.16,164.73q-.87-.14-.73.73C67.92,166.06,68.77,165.21,68.16,164.73Z" transform="translate(-40 -22)"/><path class="cls-1" d="M54.65,165.09c-1-.94-.55,1.31,0,0Z" transform="translate(-40 -22)"/><path class="cls-1" d="M250.38,154.93c-3.13.64-3.13,6.35.09,6.89C250.41,159.56,250.59,157.05,250.38,154.93Z" transform="translate(-40 -22)"/><path class="cls-1" d="M238.59,161.74a3.05,3.05,0,0,0,1.9-.91c1.81-1.88.7-5.59-2.09-5.9a3.49,3.49,0,0,0-3.9,3A3.39,3.39,0,0,0,238.59,161.74Z" transform="translate(-40 -22)"/><path class="cls-1" d="M225.08,161.55a2.87,2.87,0,0,0,1.91-1.09c1.42-1.84.3-4.95-1.91-5.35a3.4,3.4,0,0,0-4,2.54A3.26,3.26,0,0,0,225.08,161.55Z" transform="translate(-40 -22)"/><path class="cls-1" d="M209.48,161.28a4.36,4.36,0,0,0,2,.09,3,3,0,0,0,2.18-1.72,3.17,3.17,0,0,0-4.17-4.17C206.36,156.72,207.81,160.62,209.48,161.28Z" transform="translate(-40 -22)"/><path class="cls-1" d="M197.87,161.19a2.92,2.92,0,0,0,.54-5.53C193.58,153.6,192.53,162.34,197.87,161.19Z" transform="translate(-40 -22)"/><path class="cls-1" d="M182.36,160.92a3.83,3.83,0,0,0,1.81.09c3.88-.81,1.74-6.69-1.81-5.17C179.92,156.88,180.74,160.23,182.36,160.92Z" transform="translate(-40 -22)"/><path class="cls-1" d="M170.39,160.83c3.77-.63,1.78-6.21-1.54-4.81C166.46,157,167.23,161.35,170.39,160.83Z" transform="translate(-40 -22)"/><path class="cls-1" d="M156.6,160.65a2.34,2.34,0,0,0,1.36-4c-2.27-2.15-5.43,1.4-3.27,3.45A2.29,2.29,0,0,0,156.6,160.65Z" transform="translate(-40 -22)"/><path class="cls-1" d="M143.18,160.38a1.86,1.86,0,0,0,1.63-2,2.09,2.09,0,0,0-4.17,0A2,2,0,0,0,143.18,160.38Z" transform="translate(-40 -22)"/><path class="cls-1" d="M129.57,160.1a1.73,1.73,0,0,0,1.27-1,1.86,1.86,0,0,0-2.18-2.54C126.44,157,127.16,160.64,129.57,160.1Z" transform="translate(-40 -22)"/><path class="cls-1" d="M116,159.83a1.54,1.54,0,0,0,.63-2.63C114.22,155.06,112.59,160.71,116,159.83Z" transform="translate(-40 -22)"/><path class="cls-1" d="M102,159.56c.87-.1,1.15-.57,1.18-1.09.14-2.41-3.9-.91-2.18.82A1.34,1.34,0,0,0,102,159.56Z" transform="translate(-40 -22)"/><path class="cls-1" d="M88.57,159.11c1.87-.67-1.26-2.71-1.09-.64C87.53,159,87.8,159.38,88.57,159.11Z" transform="translate(-40 -22)"/><path class="cls-1" d="M75.06,158.29c-1-.94-.55,1.31,0,0Z" transform="translate(-40 -22)"/><path class="cls-1" d="M245.3,154.93a3.12,3.12,0,0,0,2.72-2.09,3.51,3.51,0,0,0-4.54-4.54C239.78,149.65,241.14,155.56,245.3,154.93Z" transform="translate(-40 -22)"/><path class="cls-1" d="M231.79,154.75a3.35,3.35,0,0,0,2.45-4.44c-.92-2.36-5-3-6.17,0a4.13,4.13,0,0,0,.73,3.63A3.47,3.47,0,0,0,231.79,154.75Z" transform="translate(-40 -22)"/><path class="cls-1" d="M218.18,154.57a2.68,2.68,0,0,0,1.72-.91c2.62-3-2-7-4.63-4.26A3.1,3.1,0,0,0,218.18,154.57Z" transform="translate(-40 -22)"/><path class="cls-1" d="M204.49,154.39a2.91,2.91,0,0,0,1.54-4.9,3.05,3.05,0,0,0-4.17,0A2.91,2.91,0,0,0,204.49,154.39Z" transform="translate(-40 -22)"/><path class="cls-1" d="M190.79,154.21a2.34,2.34,0,0,0,1.72-.91,2.82,2.82,0,0,0-2.09-4.44C186.77,148.77,186.86,154.84,190.79,154.21Z" transform="translate(-40 -22)"/><path class="cls-1" d="M176.82,154A2.53,2.53,0,0,0,179,150.4c-1.28-2.6-6.16-.93-4.53,2.36A2.84,2.84,0,0,0,176.82,154Z" transform="translate(-40 -22)"/><path class="cls-1" d="M163.67,153.75c2.63-.57,1.77-4.11,0-4.44C160.1,148.64,159.92,154.57,163.67,153.75Z" transform="translate(-40 -22)"/><path class="cls-1" d="M149.89,153.57a2.06,2.06,0,0,0-.45-4.08C146.52,149.59,147.11,154,149.89,153.57Z" transform="translate(-40 -22)"/><path class="cls-1" d="M136.28,153.3c2.17-.41,1.59-3.62-.45-3.54C133.47,149.86,133.62,153.81,136.28,153.3Z" transform="translate(-40 -22)"/><path class="cls-1" d="M122.59,153a1.35,1.35,0,0,0,1.27-1.45,1.54,1.54,0,1,0-3.08.09A1.4,1.4,0,0,0,122.59,153Z" transform="translate(-40 -22)"/><path class="cls-1" d="M109,152.67c.86-.19.91-.62.91-1.09,0-2-3.42-1.15-2.18.73A1.18,1.18,0,0,0,109,152.67Z" transform="translate(-40 -22)"/><path class="cls-1" d="M94.74,152.3c.22-.06.66.11.73-.09.35-.11.41-.49.36-1C95.14,150.13,93.65,151.61,94.74,152.3Z" transform="translate(-40 -22)"/><path class="cls-1" d="M81.86,151.49c-1-.94-.55,1.31,0,0Z" transform="translate(-40 -22)"/><path class="cls-1" d="M238.32,147.95a3,3,0,0,0,2.9-3.27c-.09-3.93-6.64-4.34-6.53.18A3.19,3.19,0,0,0,238.32,147.95Z" transform="translate(-40 -22)"/><path class="cls-1" d="M250.47,147.95V141.6C247.52,142,247.52,147.54,250.47,147.95Z" transform="translate(-40 -22)"/><path class="cls-1" d="M224.81,147.77c4.47-.63,2.5-7.49-1.63-5.9C219.9,143.13,221.17,148.28,224.81,147.77Z" transform="translate(-40 -22)"/><path class="cls-1" d="M211.11,147.59c3.56-.46,3.11-5.8-.45-5.71C206.94,142,207,148.11,211.11,147.59Z" transform="translate(-40 -22)"/><path class="cls-1" d="M197.23,147.41a2.64,2.64,0,0,0,2.45-3.63c-1-2.81-6.42-1.69-5.08,2A2.76,2.76,0,0,0,197.23,147.41Z" transform="translate(-40 -22)"/><path class="cls-1" d="M184.08,147.13c2.71-.54,2.16-4.13.36-4.72C180.47,141.11,179.89,148,184.08,147.13Z" transform="translate(-40 -22)"/><path class="cls-1" d="M170.29,147a2.24,2.24,0,0,0-.45-4.44C166.92,142.61,167,147.48,170.29,147Z" transform="translate(-40 -22)"/><path class="cls-1" d="M156.78,146.68a1.61,1.61,0,0,0,1.54-1.63c.3-3-3.77-2.75-4-.54A1.91,1.91,0,0,0,156.78,146.68Z" transform="translate(-40 -22)"/><path class="cls-1" d="M143.27,146.41c2-.53,1.06-3.11,0-3.36C140.35,142.38,140.18,147.23,143.27,146.41Z" transform="translate(-40 -22)"/><path class="cls-1" d="M129.57,146.14c1.9-.52.91-3.22-.91-2.81S127.53,146.69,129.57,146.14Z" transform="translate(-40 -22)"/><path class="cls-1" d="M116,145.77a1,1,0,0,0,.63-.54c.67-2.26-2.72-1.83-2.18,0A1.12,1.12,0,0,0,116,145.77Z" transform="translate(-40 -22)"/><path class="cls-1" d="M102.27,145.32c1.23-.94-1.43-2-1-.18A.8.8,0,0,0,102.27,145.32Z" transform="translate(-40 -22)"/><path class="cls-1" d="M88.66,144.68c-1-.94-.55,1.31,0,0Z" transform="translate(-40 -22)"/><path class="cls-1" d="M244.94,141.15a3,3,0,0,0,2.09-.82c3.12-3-1.68-7.7-4.63-4.63A3.24,3.24,0,0,0,244.94,141.15Z" transform="translate(-40 -22)"/><path class="cls-1" d="M231.24,141a2.87,2.87,0,0,0,2.9-2.27c.86-4.11-5.21-5.14-6-1.45A3,3,0,0,0,231.24,141Z" transform="translate(-40 -22)"/><path class="cls-1" d="M217.73,140.78a2.88,2.88,0,0,0,1.09-5.44C214.45,133.39,212.94,141.14,217.73,140.78Z" transform="translate(-40 -22)"/><path class="cls-1" d="M204.58,140.51a2.47,2.47,0,0,0,2-1.9c.75-3.84-4.67-4.28-5.26-1.27A2.65,2.65,0,0,0,204.58,140.51Z" transform="translate(-40 -22)"/><path class="cls-1" d="M190.79,140.33a2.46,2.46,0,0,0,1.36-4.08c-2.29-2.41-5.86,1.34-3.54,3.54A2.43,2.43,0,0,0,190.79,140.33Z" transform="translate(-40 -22)"/><path class="cls-1" d="M176.92,140.15a2.23,2.23,0,0,0-.27-4.44C173.7,135.8,174,140.41,176.92,140.15Z" transform="translate(-40 -22)"/><path class="cls-1" d="M163.49,139.88A2,2,0,0,0,165,138.7c1-3-3.11-3.51-3.81-1.45A1.93,1.93,0,0,0,163.49,139.88Z" transform="translate(-40 -22)"/><path class="cls-1" d="M150,139.6c1-.24,1.06-.69,1.18-1.09.86-2.94-4.47-3-3.27.18A1.71,1.71,0,0,0,150,139.6Z" transform="translate(-40 -22)"/><path class="cls-1" d="M135.46,139.33a1.6,1.6,0,0,0,.91-.09,1.32,1.32,0,0,0,.91-.82c.4-1.66-1-2-1.81-1.81C133.8,137,134.74,139.16,135.46,139.33Z" transform="translate(-40 -22)"/><path class="cls-1" d="M122.59,139a1,1,0,0,0,.82-1,1.09,1.09,0,0,0-2.18,0A1,1,0,0,0,122.59,139Z" transform="translate(-40 -22)"/><path class="cls-1" d="M109.16,137.52a.64.64,0,0,0-.91.91A.65.65,0,0,0,109.16,137.52Z" transform="translate(-40 -22)"/><path class="cls-1" d="M95.47,137.88c-1-.94-.55,1.31,0,0Z" transform="translate(-40 -22)"/><path class="cls-1" d="M250.47,134.16c-.06-2,.12-4.17-.09-6C247.83,128.84,247.82,133.61,250.47,134.16Z" transform="translate(-40 -22)"/><path class="cls-1" d="M238.59,134.07a3,3,0,0,0,1.54-5.08,3.2,3.2,0,0,0-4.35,0C233.5,131.28,235.89,134.6,238.59,134.07Z" transform="translate(-40 -22)"/><path class="cls-1" d="M224.9,133.89c3-.52,3-5.08,0-5.53C220.38,127.67,220.61,134.64,224.9,133.89Z" transform="translate(-40 -22)"/><path class="cls-1" d="M211.29,133.71a2.49,2.49,0,0,0,2.09-3c-.34-2.53-4.92-3.15-5.26.09A2.6,2.6,0,0,0,211.29,133.71Z" transform="translate(-40 -22)"/><path class="cls-1" d="M197.78,133.44c2.63-.61,1.9-4,.27-4.54C194.13,127.61,193.62,134.4,197.78,133.44Z" transform="translate(-40 -22)"/><path class="cls-1" d="M184,133.26c2.7-.54,1.86-4.61-.82-4.26C180.69,129.32,180.84,133.88,184,133.26Z" transform="translate(-40 -22)"/><path class="cls-1" d="M170,133.07c3.12-.21,1.84-4.55-.73-3.81C167.05,129.91,167.94,133.22,170,133.07Z" transform="translate(-40 -22)"/><path class="cls-1" d="M156.87,132.71a1.68,1.68,0,0,0-1.09-3.17C153.72,130.06,154.78,133.69,156.87,132.71Z" transform="translate(-40 -22)"/><path class="cls-1" d="M143.08,132.44a1.17,1.17,0,0,0,1-1.09c.22-2.34-3-1.87-2.72.09C141.46,132.13,142,132.72,143.08,132.44Z" transform="translate(-40 -22)"/><path class="cls-1" d="M129.48,132.08c.51-.18.79-.41.64-1.18a1,1,0,0,0-2,.54C128.21,131.91,128.58,132.39,129.48,132.08Z" transform="translate(-40 -22)"/><path class="cls-1" d="M116,130.72a.64.64,0,0,0-.91.91A.65.65,0,0,0,116,130.72Z" transform="translate(-40 -22)"/><path class="cls-1" d="M102.27,131.08c-1-.94-.55,1.31,0,0Z" transform="translate(-40 -22)"/><path class="cls-1" d="M245.21,127.27c3.54-.55,3.18-6-.54-5.9C240.64,121.47,241.11,127.9,245.21,127.27Z" transform="translate(-40 -22)"/><path class="cls-1" d="M231.61,127.09a2.79,2.79,0,0,0-.63-5.53C227.26,121.76,227.79,127.7,231.61,127.09Z" transform="translate(-40 -22)"/><path class="cls-1" d="M217.73,126.91c3.62-.29,2.79-5.25-.27-5.17C214,121.82,214.31,127.18,217.73,126.91Z" transform="translate(-40 -22)"/><path class="cls-1" d="M204.49,126.63a2.56,2.56,0,0,0,1.27-.63c1.86-2.1-1.33-5.56-3.54-3.36A2.4,2.4,0,0,0,204.49,126.63Z" transform="translate(-40 -22)"/><path class="cls-1" d="M190.61,126.45a2.14,2.14,0,0,0-.36-4.26C187.64,122.28,187.5,126.87,190.61,126.45Z" transform="translate(-40 -22)"/><path class="cls-1" d="M177.19,126.18c2.18-.49,1.55-3.19.27-3.63C174.38,121.49,173.91,126.92,177.19,126.18Z" transform="translate(-40 -22)"/><path class="cls-1" d="M163.49,125.91a1.39,1.39,0,0,0,1.27-1.45c.09-2.36-3.19-2.18-3.27-.18A1.48,1.48,0,0,0,163.49,125.91Z" transform="translate(-40 -22)"/><path class="cls-1" d="M149.61,125.64c.86-.08,1.23-.54,1.27-1.18.13-2.31-4-1.34-2.45.73A1.46,1.46,0,0,0,149.61,125.64Z" transform="translate(-40 -22)"/><path class="cls-1" d="M136,125.27c1.64-.22.67-2.36-.54-1.81A1,1,0,0,0,136,125.27Z" transform="translate(-40 -22)"/><path class="cls-1" d="M122.59,123.91q-.87-.14-.73.73C122.34,125.24,123.19,124.39,122.59,123.91Z" transform="translate(-40 -22)"/><path class="cls-1" d="M109.07,124.28c-1-.94-.55,1.31,0,0Z" transform="translate(-40 -22)"/><path class="cls-1" d="M250.47,120.29c-.06-1.78.12-3.81-.09-5.44C248.16,115.47,248.15,119.76,250.47,120.29Z" transform="translate(-40 -22)"/><path class="cls-1" d="M238.68,120.2a2.43,2.43,0,0,0,1.9-1.81c1.25-3.9-4.69-4.75-5.35-1.54A2.74,2.74,0,0,0,238.68,120.2Z" transform="translate(-40 -22)"/><path class="cls-1" d="M225,120a2.34,2.34,0,0,0,1.81-1.72c1-3.79-4.15-4.3-4.9-1.45A2.49,2.49,0,0,0,225,120Z" transform="translate(-40 -22)"/><path class="cls-1" d="M211.2,119.83c3.64-.67,1.41-6-1.63-4.35A2.36,2.36,0,0,0,211.2,119.83Z" transform="translate(-40 -22)"/><path class="cls-1" d="M197.69,119.56c3.5-.78.38-6-2.09-3.54A2.14,2.14,0,0,0,197.69,119.56Z" transform="translate(-40 -22)"/><path class="cls-1" d="M183.63,119.38c2.25-.17,2.39-3.63,0-3.72C181,115.56,181.27,119.55,183.63,119.38Z" transform="translate(-40 -22)"/><path class="cls-1" d="M170.11,119.11c2.15-.29,1.5-3.25-.27-3.17C167.89,116,167.8,119.41,170.11,119.11Z" transform="translate(-40 -22)"/><path class="cls-1" d="M156.69,118.74a1.11,1.11,0,0,0,.91-1.09c.11-2.08-2.72-1.63-2.54.09C155.13,118.46,155.62,119,156.69,118.74Z" transform="translate(-40 -22)"/><path class="cls-1" d="M143,118.38a.77.77,0,0,0,.63-.91.91.91,0,1,0-1.81.18C141.85,118.19,142.2,118.63,143,118.38Z" transform="translate(-40 -22)"/><path class="cls-1" d="M129.39,117.11q-.87-.14-.73.73C129.14,118.44,130,117.59,129.39,117.11Z" transform="translate(-40 -22)"/><path class="cls-1" d="M115.87,117.47c-1-.94-.55,1.31,0,0Z" transform="translate(-40 -22)"/><path class="cls-1" d="M243.58,113.3a3.84,3.84,0,0,0,1.81.09c3.88-.81,1.74-6.69-1.81-5.17C241.14,109.26,242,112.61,243.58,113.3Z" transform="translate(-40 -22)"/><path class="cls-1" d="M231.61,113.21c3.77-.63,1.78-6.21-1.54-4.81C227.68,109.41,228.45,113.74,231.61,113.21Z" transform="translate(-40 -22)"/><path class="cls-1" d="M218.18,112.94a2.35,2.35,0,0,0,1.54-1.27c1.19-3.38-3.51-4.2-4.35-1.81A2.3,2.3,0,0,0,218.18,112.94Z" transform="translate(-40 -22)"/><path class="cls-1" d="M204.4,112.76a1.86,1.86,0,0,0,1.63-2,2.09,2.09,0,0,0-4.17,0A2,2,0,0,0,204.4,112.76Z" transform="translate(-40 -22)"/><path class="cls-1" d="M190.79,112.49a1.73,1.73,0,0,0,1.27-1,1.86,1.86,0,0,0-2.18-2.54C187.67,109.35,188.39,113,190.79,112.49Z" transform="translate(-40 -22)"/><path class="cls-1" d="M177.19,112.21a1.54,1.54,0,0,0,.63-2.63C175.44,107.44,173.81,113.09,177.19,112.21Z" transform="translate(-40 -22)"/><path class="cls-1" d="M163.22,111.94c.87-.1,1.15-.57,1.18-1.09.14-2.41-3.9-.91-2.18.82A1.34,1.34,0,0,0,163.22,111.94Z" transform="translate(-40 -22)"/><path class="cls-1" d="M149.8,111.49c1.87-.67-1.26-2.72-1.09-.64C148.75,111.35,149,111.76,149.8,111.49Z" transform="translate(-40 -22)"/><path class="cls-1" d="M136.28,110.67c-1-.94-.55,1.31,0,0Z" transform="translate(-40 -22)"/><path class="cls-1" d="M238.14,106.41a2.53,2.53,0,0,0,2.18-3.63c-1.28-2.59-6.16-.93-4.53,2.36A2.84,2.84,0,0,0,238.14,106.41Z" transform="translate(-40 -22)"/><path class="cls-1" d="M250.47,106.32V101.6C248.54,102.16,248.54,105.76,250.47,106.32Z" transform="translate(-40 -22)"/><path class="cls-1" d="M225,106.14c2.63-.57,1.77-4.11,0-4.44C221.42,101,221.23,106.95,225,106.14Z" transform="translate(-40 -22)"/><path class="cls-1" d="M211.47,105.86c2-.43,1.5-3.54,0-3.9C208.25,101.18,207.76,106.7,211.47,105.86Z" transform="translate(-40 -22)"/><path class="cls-1" d="M197.6,105.68c2.17-.41,1.59-3.62-.45-3.54C194.78,102.24,194.93,106.19,197.6,105.68Z" transform="translate(-40 -22)"/><path class="cls-1" d="M183.9,105.41a1.35,1.35,0,0,0,1.27-1.45,1.54,1.54,0,1,0-3.08.09A1.4,1.4,0,0,0,183.9,105.41Z" transform="translate(-40 -22)"/><path class="cls-1" d="M170.29,105c.86-.19.91-.62.91-1.09,0-2-3.42-1.15-2.18.73A1.18,1.18,0,0,0,170.29,105Z" transform="translate(-40 -22)"/><path class="cls-1" d="M156.05,104.69c.22-.05.66.11.73-.09.35-.11.41-.49.36-1C156.45,102.51,155,104,156.05,104.69Z" transform="translate(-40 -22)"/><path class="cls-1" d="M143.18,103.87c-1-.94-.55,1.31,0,0Z" transform="translate(-40 -22)"/><path class="cls-1" d="M245.39,99.52c2.71-.54,2.16-4.13.36-4.72C241.78,93.5,241.21,100.34,245.39,99.52Z" transform="translate(-40 -22)"/><path class="cls-1" d="M231.61,99.33a2.24,2.24,0,0,0-.45-4.44C228.23,95,228.36,99.86,231.61,99.33Z" transform="translate(-40 -22)"/><path class="cls-1" d="M218.09,99.06a1.61,1.61,0,0,0,1.54-1.63c.3-3-3.77-2.75-4-.54A1.91,1.91,0,0,0,218.09,99.06Z" transform="translate(-40 -22)"/><path class="cls-1" d="M204.58,98.79c2-.53,1.06-3.11,0-3.36C201.67,94.76,201.5,99.61,204.58,98.79Z" transform="translate(-40 -22)"/><path class="cls-1" d="M190.88,98.52c1.9-.52.91-3.21-.91-2.81S188.84,99.07,190.88,98.52Z" transform="translate(-40 -22)"/><path class="cls-1" d="M177.28,98.15a1,1,0,0,0,.63-.54c.67-2.26-2.72-1.83-2.18,0A1.12,1.12,0,0,0,177.28,98.15Z" transform="translate(-40 -22)"/><path class="cls-1" d="M163.58,97.7c1.23-.94-1.43-2-1-.18A.8.8,0,0,0,163.58,97.7Z" transform="translate(-40 -22)"/><path class="cls-1" d="M150,97.07c-1-.94-.55,1.31,0,0Z" transform="translate(-40 -22)"/><path class="cls-1" d="M238.23,92.53a2.23,2.23,0,0,0-.27-4.44C235,88.18,235.35,92.79,238.23,92.53Z" transform="translate(-40 -22)"/><path class="cls-1" d="M250.47,92.44a37.42,37.42,0,0,0-.09-4.17C249,88.87,248.94,91.94,250.47,92.44Z" transform="translate(-40 -22)"/><path class="cls-1" d="M224.81,92.26a2,2,0,0,0,1.54-1.18c1-3-3.11-3.51-3.81-1.45A1.93,1.93,0,0,0,224.81,92.26Z" transform="translate(-40 -22)"/><path class="cls-1" d="M211.29,92c1-.24,1.06-.69,1.18-1.09.86-2.94-4.47-3-3.27.18A1.71,1.71,0,0,0,211.29,92Z" transform="translate(-40 -22)"/><path class="cls-1" d="M196.78,91.71a1.6,1.6,0,0,0,.91-.09,1.32,1.32,0,0,0,.91-.82c.4-1.66-1-2-1.81-1.81C195.11,89.39,196.06,91.54,196.78,91.71Z" transform="translate(-40 -22)"/><path class="cls-1" d="M183.9,91.35a1,1,0,0,0,.82-1,1.09,1.09,0,0,0-2.18,0A1,1,0,0,0,183.9,91.35Z" transform="translate(-40 -22)"/><path class="cls-1" d="M170.48,89.9a.64.64,0,1,0-.91.91A.65.65,0,0,0,170.48,89.9Z" transform="translate(-40 -22)"/><path class="cls-1" d="M156.78,90.26c-1-.94-.55,1.31,0,0Z" transform="translate(-40 -22)"/><path class="cls-1" d="M245.3,85.64c2.7-.54,1.86-4.61-.82-4.26C242,81.7,242.15,86.27,245.3,85.64Z" transform="translate(-40 -22)"/><path class="cls-1" d="M231.34,85.46c3.12-.21,1.84-4.55-.73-3.81C228.37,82.29,229.25,85.6,231.34,85.46Z" transform="translate(-40 -22)"/><path class="cls-1" d="M218.18,85.09a1.68,1.68,0,0,0-1.09-3.17C215,82.44,216.1,86.07,218.18,85.09Z" transform="translate(-40 -22)"/><path class="cls-1" d="M204.4,84.82a1.18,1.18,0,0,0,1-1.09c.22-2.34-3-1.87-2.72.09C202.77,84.51,203.27,85.1,204.4,84.82Z" transform="translate(-40 -22)"/><path class="cls-1" d="M190.79,84.46c.51-.18.79-.41.63-1.18a1,1,0,0,0-2,.54C189.52,84.29,189.89,84.77,190.79,84.46Z" transform="translate(-40 -22)"/><path class="cls-1" d="M177.28,83.1a.64.64,0,1,0-.91.91A.65.65,0,0,0,177.28,83.1Z" transform="translate(-40 -22)"/><path class="cls-1" d="M163.58,83.46c-1-.94-.55,1.31,0,0Z" transform="translate(-40 -22)"/><path class="cls-1" d="M238.5,78.56c2.18-.49,1.55-3.19.27-3.63C235.69,73.88,235.23,79.3,238.5,78.56Z" transform="translate(-40 -22)"/><path class="cls-1" d="M250.47,78.47a25.44,25.44,0,0,0-.09-3.45C249.32,75.56,249.28,78.05,250.47,78.47Z" transform="translate(-40 -22)"/><path class="cls-1" d="M224.81,78.29a1.39,1.39,0,0,0,1.27-1.45c.1-2.36-3.18-2.18-3.27-.18A1.49,1.49,0,0,0,224.81,78.29Z" transform="translate(-40 -22)"/><path class="cls-1" d="M210.93,78c.86-.08,1.23-.54,1.27-1.18.13-2.31-4-1.34-2.45.73A1.46,1.46,0,0,0,210.93,78Z" transform="translate(-40 -22)"/><path class="cls-1" d="M197.32,77.66c1.64-.22.67-2.36-.54-1.81A1,1,0,0,0,197.32,77.66Z" transform="translate(-40 -22)"/><path class="cls-1" d="M183.9,76.3q-.87-.14-.73.73C183.65,77.62,184.5,76.77,183.9,76.3Z" transform="translate(-40 -22)"/><path class="cls-1" d="M170.39,76.66c-1-.94-.55,1.31,0,0Z" transform="translate(-40 -22)"/><path class="cls-1" d="M244.94,71.76c2.25-.17,2.39-3.63,0-3.72C242.3,67.94,242.59,71.94,244.94,71.76Z" transform="translate(-40 -22)"/><path class="cls-1" d="M231.43,71.49c2.15-.29,1.5-3.25-.27-3.17C229.21,68.4,229.11,71.8,231.43,71.49Z" transform="translate(-40 -22)"/><path class="cls-1" d="M218,71.13a1.11,1.11,0,0,0,.91-1.09c.11-2.08-2.72-1.63-2.54.09C216.45,70.84,216.94,71.42,218,71.13Z" transform="translate(-40 -22)"/><path class="cls-1" d="M204.31,70.76a.77.77,0,0,0,.64-.91.91.91,0,1,0-1.81.18C203.17,70.57,203.51,71,204.31,70.76Z" transform="translate(-40 -22)"/><path class="cls-1" d="M190.7,69.49q-.87-.14-.73.73C190.45,70.82,191.3,70,190.7,69.49Z" transform="translate(-40 -22)"/><path class="cls-1" d="M177.19,69.86c-1-.94-.55,1.31,0,0Z" transform="translate(-40 -22)"/><path class="cls-1" d="M238.5,64.6a1.54,1.54,0,0,0,.63-2.63C236.75,59.82,235.13,65.47,238.5,64.6Z" transform="translate(-40 -22)"/><path class="cls-1" d="M250.47,64.5a15.82,15.82,0,0,0-.09-2.72A2,2,0,0,0,250.47,64.5Z" transform="translate(-40 -22)"/><path class="cls-1" d="M224.53,64.32c.87-.1,1.15-.57,1.18-1.09.14-2.41-3.9-.91-2.18.82A1.34,1.34,0,0,0,224.53,64.32Z" transform="translate(-40 -22)"/><path class="cls-1" d="M211.11,63.87c1.87-.67-1.26-2.71-1.09-.63C210.06,63.73,210.34,64.15,211.11,63.87Z" transform="translate(-40 -22)"/><path class="cls-1" d="M197.6,63.05c-1-.94-.55,1.31,0,0Z" transform="translate(-40 -22)"/><path class="cls-1" d="M245.12,57.79a1.35,1.35,0,0,0,1.27-1.45,1.54,1.54,0,1,0-3.08.09A1.4,1.4,0,0,0,245.12,57.79Z" transform="translate(-40 -22)"/><path class="cls-1" d="M231.52,57.43c.86-.19.91-.62.91-1.09,0-2-3.42-1.15-2.18.73A1.18,1.18,0,0,0,231.52,57.43Z" transform="translate(-40 -22)"/><path class="cls-1" d="M217.28,57.07c.22-.06.66.11.73-.09.35-.11.41-.5.36-1C217.68,54.89,216.19,56.38,217.28,57.07Z" transform="translate(-40 -22)"/><path class="cls-1" d="M204.4,56.25c-1-.94-.55,1.31,0,0Z" transform="translate(-40 -22)"/><path class="cls-1" d="M238.5,50.54a1,1,0,0,0,.63-.54c.67-2.26-2.72-1.83-2.18,0A1.12,1.12,0,0,0,238.5,50.54Z" transform="translate(-40 -22)"/><path class="cls-1" d="M250.38,48.81c-.09.41-.2,1.18.09,1.45C250.41,49.81,250.59,49.12,250.38,48.81Z" transform="translate(-40 -22)"/><path class="cls-1" d="M224.81,50.08c1.23-.94-1.43-2-1-.18A.8.8,0,0,0,224.81,50.08Z" transform="translate(-40 -22)"/><path class="cls-1" d="M211.2,49.45c-1-.94-.55,1.31,0,0Z" transform="translate(-40 -22)"/><path class="cls-1" d="M245.12,43.73a1,1,0,0,0,.82-1,1.09,1.09,0,0,0-2.18,0A1,1,0,0,0,245.12,43.73Z" transform="translate(-40 -22)"/><path class="cls-1" d="M231.7,42.28a1.21,1.21,0,0,0-.91,0,1.21,1.21,0,0,0,0,.91A.65.65,0,0,0,231.7,42.28Z" transform="translate(-40 -22)"/><path class="cls-1" d="M218,42.65c-1-.94-.55,1.31,0,0Z" transform="translate(-40 -22)"/><path class="cls-1" d="M238.5,35.48a1.21,1.21,0,0,0-.91,0,1.21,1.21,0,0,0,0,.91A.65.65,0,0,0,238.5,35.48Z" transform="translate(-40 -22)"/><path class="cls-1" d="M224.81,35.84c-1-.94-.55,1.31,0,0Z" transform="translate(-40 -22)"/><path class="cls-1" d="M245.12,28.68q-.87-.14-.73.73C244.87,30,245.72,29.16,245.12,28.68Z" transform="translate(-40 -22)"/><path class="cls-1" d="M231.61,29c-1-.94-.55,1.31,0,0Z" transform="translate(-40 -22)"/><path class="cls-1" d="M238.41,22.24c-1-.94-.55,1.31,0,0Z" transform="translate(-40 -22)"/></svg>