<?xml version="1.0" encoding="utf-8"?>
<!-- Generator: Adobe Illustrator 21.1.0, SVG Export Plug-In . SVG Version: 6.00 Build 0)  -->
<svg version="1.1" id="Layer_1" xmlns="http://www.w3.org/2000/svg" xmlns:xlink="http://www.w3.org/1999/xlink" x="0px" y="0px"
	 viewBox="0 0 438.4 31.3" style="enable-background:new 0 0 438.4 31.3;" xml:space="preserve">
<style type="text/css">
	.st0{fill:#D600DE;}
</style>
<g>
	<polygon class="st0" points="22.7,0.7 16.4,0.7 5.1,13 5.1,0.6 0,0.6 0,30.6 5.1,30.6 5.1,19.9 7.5,17.3 16.7,30.6 23,30.6 
		11.2,13.7 	"/>
	<polygon class="st0" points="54.9,12.6 48.1,0.7 42.5,0.7 42.5,0.6 24,0.6 24,30.6 42.5,30.6 42.5,29.6 42.5,25.9 29,25.9 29,17.8 
		41.7,17.8 41.7,13 29,13 29,5.4 42.5,5.4 42.5,1.2 52.5,17.6 52.5,29.6 52.5,29.7 52.5,30.7 57.4,30.7 57.4,17.7 67.6,0.7 
		61.7,0.7 	"/>
	<path class="st0" d="M93.8,21.5c0,1.4-0.5,2.6-1.5,3.5c-1,0.9-2.4,1.5-4.5,1.5c-1.1,0-2.1-0.2-2.9-0.5c-1.2-0.5-2.2-1.4-2.9-2.7
		c-0.7-1.3-1.1-3.2-1.1-5.5v-1h-0.1v-2.9c0-3.1,0.7-5.3,1.9-6.8c1.2-1.4,2.8-2.1,4.9-2.1c2.1,0,3.5,0.7,4.6,1.8c1,1,1.5,2.4,1.5,3.7
		v1h5v-1c0-2.4-0.9-5-2.8-7c-1.9-2-4.7-3.3-8.3-3.3c-3.5,0-6.6,1.2-8.6,3.6c-2.1,2.4-3.2,5.8-3.2,10.1v3.9c0,4.3,1.1,7.7,3.1,10
		c2.1,2.4,5.1,3.6,8.7,3.6c3.8,0,6.6-1.3,8.5-3.2c1.9-1.9,2.7-4.3,2.7-6.6v-1h-5V21.5z"/>
	<path class="st0" d="M113.4,0c-3.6,0-6.7,1.3-8.8,3.7c-2.1,2.4-3.3,5.8-3.3,9.9v4.3c0,4.1,1.1,7.4,3.2,9.7c2.1,2.3,5.2,3.6,8.8,3.6
		c3.6,0,6.7-1.2,8.8-3.5c2.1-2.3,3.3-5.7,3.3-9.8v-4.3c0-4.1-1.1-7.5-3.2-9.9C120.1,1.3,117,0,113.4,0z M113.4,26.5
		c-2.1,0-3.8-0.7-5-2c-1.2-1.3-2-3.4-2-6.5v-4.3c0-3,0.8-5.2,2-6.6c1.2-1.4,2.9-2.1,5-2.2c2.1,0,3.7,0.7,5,2.2c1.2,1.4,2,3.6,2,6.6
		V18c0,3-0.8,5.1-2,6.5C117.2,25.8,115.5,26.5,113.4,26.5z"/>
	<polygon class="st0" points="134.4,0.6 129.3,0.6 129.3,30.6 146.5,30.6 146.6,30.6 147.6,30.6 147.6,25.8 134.4,25.8 	"/>
	<polygon class="st0" points="154.7,0.6 149.6,0.6 149.6,30.6 166.8,30.6 166.9,30.6 167.9,30.6 167.9,25.8 154.7,25.8 	"/>
	<polygon class="st0" points="169.8,30.6 188.3,30.6 188.3,29.6 188.3,25.9 174.8,25.9 174.8,17.8 187.5,17.8 187.5,13 174.8,13 
		174.8,5.4 188.3,5.4 188.3,0.6 169.8,0.6 	"/>
	<path class="st0" d="M209,21.5c0,1.4-0.5,2.6-1.5,3.5c-1,0.9-2.4,1.5-4.5,1.5c-1.1,0-2.1-0.2-2.9-0.5c-1.2-0.5-2.2-1.4-2.9-2.7
		c-0.7-1.3-1.1-3.2-1.1-5.5v-1H196v-2.9c0-3.1,0.7-5.3,1.9-6.8c1.2-1.4,2.8-2.1,4.9-2.1c2.1,0,3.5,0.7,4.6,1.8c1,1,1.5,2.4,1.5,3.7
		v1h5v-1c0-2.4-0.9-5-2.8-7c-1.9-2-4.7-3.3-8.3-3.3c-3.5,0-6.6,1.2-8.6,3.6c-2.1,2.4-3.2,5.8-3.2,10.1v3.9c0,4.3,1.1,7.7,3.1,10
		c2.1,2.4,5.1,3.6,8.7,3.6c3.8,0,6.6-1.3,8.5-3.2c1.9-1.9,2.7-4.3,2.7-6.6v-1h-5V21.5z"/>
	<polygon class="st0" points="214.7,5.4 223.4,5.4 223.4,29.6 223.4,29.7 223.4,30.7 228.3,30.7 228.3,5.5 237,5.5 237,0.7 
		214.7,0.7 	"/>
	<path class="st0" d="M249.3,0c-3.6,0-6.7,1.3-8.8,3.7c-2.1,2.4-3.3,5.8-3.3,9.9v4.3c0,4.1,1.1,7.4,3.2,9.7c2.1,2.3,5.2,3.6,8.8,3.6
		c3.6,0,6.7-1.2,8.8-3.5c2.1-2.3,3.3-5.7,3.3-9.8v-4.3c0-4.1-1.1-7.5-3.2-9.9C256,1.3,252.9,0,249.3,0z M249.3,26.5
		c-2.1,0-3.8-0.7-5-2c-1.2-1.3-2-3.4-2-6.5v-4.3c0-3,0.8-5.2,2-6.6c1.2-1.4,2.9-2.1,5-2.2c2.1,0,3.7,0.7,5,2.2c1.2,1.4,2,3.6,2,6.6
		V18c0,3-0.8,5.1-2,6.5C253.1,25.8,251.4,26.5,249.3,26.5z"/>
	<path class="st0" d="M283.9,15.8c1.1-1.4,1.9-3.4,1.9-5.9c0-2.4-0.7-4.7-2.4-6.4c-1.7-1.7-4.2-2.8-7.5-2.8h-10.8v30h5.1V19.3h5.6
		l5.4,11.4h5.7l-6-12.5C282,17.7,283,16.9,283.9,15.8z M270.3,5.5h5.4c1.6,0,2.9,0.4,3.7,1.2c0.8,0.7,1.3,1.8,1.3,3.4
		c0,0.7-0.1,1.4-0.3,1.9c-0.3,0.8-0.8,1.4-1.6,1.8c-0.8,0.4-1.9,0.7-3.3,0.7h-5.2V5.5z"/>
	<path class="st0" d="M315.1,21.5c0,1.4-0.5,2.6-1.5,3.5c-1,0.9-2.4,1.5-4.5,1.5c-1.1,0-2.1-0.2-2.9-0.5c-1.2-0.5-2.2-1.4-2.9-2.7
		c-0.7-1.3-1.1-3.2-1.1-5.5v-1h-0.1v-2.9c0-3.1,0.7-5.3,1.9-6.8c1.2-1.4,2.8-2.1,4.9-2.1c2.1,0,3.5,0.7,4.6,1.8c1,1,1.5,2.4,1.5,3.7
		v1h5v-1c0-2.4-0.9-5-2.8-7c-1.9-2-4.7-3.3-8.3-3.3c-3.5,0-6.6,1.2-8.6,3.6c-2.1,2.4-3.2,5.8-3.2,10.1v3.9c0,4.3,1.1,7.7,3.1,10
		c2.1,2.4,5.1,3.6,8.7,3.6c3.8,0,6.6-1.3,8.5-3.2c1.9-1.9,2.7-4.3,2.7-6.6v-1h-5V21.5z"/>
	<path class="st0" d="M334.8,0c-3.6,0-6.7,1.3-8.8,3.7c-2.1,2.4-3.3,5.8-3.3,9.9v4.3c0,4.1,1.1,7.4,3.2,9.7c2.1,2.3,5.2,3.6,8.8,3.6
		c3.6,0,6.7-1.2,8.8-3.5c2.1-2.3,3.3-5.7,3.3-9.8v-4.3c0-4.1-1.1-7.5-3.2-9.9C341.5,1.3,338.4,0,334.8,0z M334.7,26.5
		c-2.1,0-3.8-0.7-5-2c-1.2-1.3-2-3.4-2-6.5v-4.3c0-3,0.8-5.2,2-6.6c1.2-1.4,2.9-2.1,5-2.2c2.1,0,3.7,0.7,5,2.2c1.2,1.4,2,3.6,2,6.6
		V18c0,3-0.8,5.1-2,6.5C338.5,25.8,336.8,26.5,334.7,26.5z"/>
	<polygon class="st0" points="364.2,21.6 355.3,0.6 350.7,0.6 350.7,30.6 351.7,30.6 355.5,30.6 355.5,13.1 362.2,28.5 366.4,28.5 
		373,13.3 373,30.6 377.8,30.6 377.8,0.6 373.2,0.6 	"/>
	<polygon class="st0" points="383,30.6 384,30.6 388.1,30.6 388.1,0.6 383,0.6 	"/>
	<path class="st0" d="M409.9,21.5c0,1.4-0.5,2.6-1.5,3.5c-1,0.9-2.4,1.5-4.5,1.5c-1.1,0-2.1-0.2-2.9-0.5c-1.2-0.5-2.2-1.4-2.9-2.7
		c-0.7-1.3-1.1-3.2-1.1-5.5v-1h-0.1v-2.9c0-3.1,0.7-5.3,1.9-6.8c1.2-1.4,2.8-2.1,4.9-2.1c2.1,0,3.5,0.7,4.6,1.8c1,1,1.5,2.4,1.5,3.7
		v1h5v-1c0-2.4-0.9-5-2.8-7c-1.9-2-4.7-3.3-8.3-3.3c-3.5,0-6.6,1.2-8.6,3.6c-2.1,2.4-3.2,5.8-3.2,10.1v3.9c0,4.3,1.1,7.7,3.1,10
		c2.1,2.4,5.1,3.6,8.7,3.6c3.8,0,6.6-1.3,8.5-3.2c1.9-1.9,2.7-4.3,2.7-6.6v-1h-5V21.5z"/>
	<path class="st0" d="M437.8,18.8c-0.6-1.4-1.6-2.5-2.9-3.4c-1.3-0.8-2.8-1.4-4.5-1.9l0,0l-4.7-1.3c-1.3-0.4-2.1-0.9-2.6-1.4
		c-0.5-0.6-0.7-1.2-0.7-2.1c0-0.6,0.1-1.2,0.4-1.6c0.3-0.7,0.9-1.2,1.8-1.6c0.8-0.4,1.9-0.6,3.2-0.6c1.9,0,3.2,0.5,4.1,1.2
		c0.9,0.7,1.3,1.7,1.4,2.8l0.1,0.9h5l0-1c0-1.5-0.4-2.8-1-3.9c-0.9-1.7-2.4-2.9-4-3.7c-1.7-0.8-3.6-1.2-5.5-1.2
		c-2.6,0-5.2,0.7-7.2,2.2c-1,0.7-1.8,1.7-2.4,2.8c-0.6,1.1-0.9,2.4-0.9,3.8c0,2.4,0.9,4.2,2.3,5.6c1.4,1.3,3.2,2.1,4.9,2.6l0,0
		l4.8,1.3l0,0c1.6,0.4,2.6,1,3.3,1.6c0.6,0.6,0.9,1.2,0.9,2.3c0,1.3-0.5,2.3-1.4,3c-0.9,0.7-2.4,1.2-4.3,1.2c-2.1,0-3.6-0.6-4.6-1.3
		c-1-0.8-1.5-1.8-1.6-3l-0.1-0.9h-0.9h-4.3l0,1c0.1,2,0.8,4.2,2.5,6c1.8,1.8,4.5,3,8.4,3c3,0,5.8-0.7,7.9-2.3c1-0.8,1.9-1.7,2.5-2.9
		c0.6-1.2,0.9-2.5,0.9-4C438.4,20.8,438.2,19.7,437.8,18.8z"/>
</g>
</svg>
