<?xml version="1.0" encoding="utf-8"?>
<!-- Generator: Adobe Illustrator 21.1.0, SVG Export Plug-In . SVG Version: 6.00 Build 0)  -->
<svg version="1.1" id="Layer_1" xmlns="http://www.w3.org/2000/svg" xmlns:xlink="http://www.w3.org/1999/xlink" x="0px" y="0px"
	 viewBox="0 0 436.6 29.2" style="enable-background:new 0 0 436.6 29.2;" xml:space="preserve">
<style type="text/css">
	.st0{fill:#D600DE;}
</style>
<g>
	<path class="st0" d="M8.9,12.6l11.2,16h-3.9L6.6,14.7l-3.5,3.8v10.1H0v-28h3.1v13.9h0.1L15.8,0.7h3.7L8.9,12.6z"/>
	<path class="st0" d="M40.5,28.6H24v-28h16.5v2.8H27V13h12.7v2.8H27v10.1h13.5V28.6z"/>
	<path class="st0" d="M52.5,28.6V16.3L43,0.7h3.5l7.3,12.7H54l7.3-12.7h3.5l-9.4,15.7v12.3H52.5z"/>
	<path class="st0" d="M78.9,16.7c0,6.6,3,9.8,7.9,9.8c4.6,0,7-2.8,7-6h3c0,3.9-3.1,8.8-10.2,8.8c-6.7,0-10.8-4.4-10.8-12.6v-3.9
		c0-8.2,4.2-12.7,10.8-12.7c6.8,0,10.1,4.9,10.1,9.3h-3c0-3.1-2.5-6.5-7.1-6.5c-4.7,0-7.8,3.4-7.8,9.9V16.7z"/>
	<path class="st0" d="M101.3,12.6c0-7.9,4.4-12.6,11.1-12.6s11,4.7,11,12.6v4.3c0,7.9-4.4,12.3-11.1,12.3c-6.7,0-11-4.5-11-12.3
		V12.6z M104.4,17c0,6.4,3.4,9.5,8,9.5c4.6,0,8-3.1,8-9.5v-4.3c0-6.4-3.4-9.8-8-9.8c-4.6,0-8,3.4-8,9.8V17z"/>
	<path class="st0" d="M145.5,28.6h-16.2v-28h3.1v25.2h13.2V28.6z"/>
	<path class="st0" d="M165.8,28.6h-16.2v-28h3.1v25.2h13.2V28.6z"/>
	<path class="st0" d="M186.3,28.6h-16.5v-28h16.5v2.8h-13.5V13h12.7v2.8h-12.7v10.1h13.5V28.6z"/>
	<path class="st0" d="M194.1,16.7c0,6.6,3,9.8,7.9,9.8c4.6,0,7-2.8,7-6h3c0,3.9-3.1,8.8-10.2,8.8c-6.7,0-10.8-4.4-10.8-12.6v-3.9
		c0-8.2,4.2-12.7,10.8-12.7c6.8,0,10.1,4.9,10.1,9.3h-3c0-3.1-2.5-6.5-7.1-6.5c-4.7,0-7.8,3.4-7.8,9.9V16.7z"/>
	<path class="st0" d="M223.4,28.6V3.4h-8.7V0.7h20.3v2.8h-8.7v25.2H223.4z"/>
	<path class="st0" d="M237.2,12.6c0-7.9,4.4-12.6,11.1-12.6s11,4.7,11,12.6v4.3c0,7.9-4.4,12.3-11.1,12.3c-6.7,0-11-4.5-11-12.3
		V12.6z M240.3,17c0,6.4,3.4,9.5,8,9.5c4.6,0,8-3.1,8-9.5v-4.3c0-6.4-3.4-9.8-8-9.8c-4.6,0-8,3.4-8,9.8V17z"/>
	<path class="st0" d="M283.8,8.9c0,4.6-2.7,6.9-5.3,7.8l5.8,12h-3.5l-5.4-11.4h-7.2v11.4h-3.1v-28h9.8
		C281.1,0.7,283.8,4.5,283.8,8.9z M274.5,14.5c4.1,0,6.2-2,6.2-5.4c0-3.7-2.4-5.6-6-5.6h-6.4v11H274.5z"/>
	<path class="st0" d="M300.2,16.7c0,6.6,3,9.8,7.9,9.8c4.6,0,7-2.8,7-6h3c0,3.9-3.1,8.8-10.2,8.8c-6.7,0-10.8-4.4-10.8-12.6v-3.9
		c0-8.2,4.2-12.7,10.8-12.7c6.8,0,10.1,4.9,10.1,9.3h-3c0-3.1-2.5-6.5-7.1-6.5c-4.7,0-7.8,3.4-7.8,9.9V16.7z"/>
	<path class="st0" d="M322.7,12.6c0-7.9,4.4-12.6,11.1-12.6s11,4.7,11,12.6v4.3c0,7.9-4.4,12.3-11.1,12.3c-6.7,0-11-4.5-11-12.3
		V12.6z M325.7,17c0,6.4,3.4,9.5,8,9.5c4.6,0,8-3.1,8-9.5v-4.3c0-6.4-3.4-9.8-8-9.8c-4.6,0-8,3.4-8,9.8V17z"/>
	<path class="st0" d="M350.7,28.6v-28h2.9l9.6,22.4h0.1l9.6-22.4h2.9v28h-2.8V7.5H373l-8.3,19h-2.8l-8.3-19h-0.1v21.1H350.7z"/>
	<path class="st0" d="M383,28.6v-28h3.1v28H383z"/>
	<path class="st0" d="M395,16.7c0,6.6,3,9.8,7.9,9.8c4.6,0,7-2.8,7-6h3c0,3.9-3.1,8.8-10.2,8.8c-6.7,0-10.8-4.4-10.8-12.6v-3.9
		c0-8.2,4.2-12.7,10.8-12.7c6.8,0,10.1,4.9,10.1,9.3h-3c0-3.1-2.5-6.5-7.1-6.5c-4.7,0-7.8,3.4-7.8,9.9V16.7z"/>
	<path class="st0" d="M419.5,21.2c0.3,2.8,2.6,5.2,7.2,5.2c4.1,0,6.7-2,6.7-5.2c0-2.5-1.6-3.9-4.9-4.8l-4.8-1.3
		c-3.3-0.9-6.5-3-6.5-7.2c0-5.1,4.6-7.9,9.5-7.9c4.7,0,9.4,2.5,9.5,7.8h-3.1c-0.2-2.7-2.3-5-6.5-5c-3.7,0-6.3,1.8-6.3,4.9
		c0,2.2,1.3,3.7,4.1,4.5l4.7,1.3c4.4,1.2,7.3,3.1,7.3,7.5c0,5.4-4.6,8.2-10.3,8.2c-7.3,0-9.8-4.5-9.9-8H419.5z"/>
</g>
</svg>
